<?xml version="1.0" encoding="iso-8859-1"?>
<!-- Generator: Adobe Illustrator 19.0.0, SVG Export Plug-In . SVG Version: 6.00 Build 0)  -->
<svg version="1.1" id="Layer_1" xmlns="http://www.w3.org/2000/svg" xmlns:xlink="http://www.w3.org/1999/xlink" x="0px" y="0px"
	 viewBox="0 0 512 512" style="enable-background:new 0 0 512 512;" xml:space="preserve">
<g>
	<g>
		<path d="M502.302,246.296h-47.5l32.171-26.978c4.106-3.444,4.644-9.565,1.2-13.672c-3.444-4.106-9.564-4.644-13.672-1.2
			l-49.904,41.85h-46.621l32.171-26.978c4.106-3.444,4.643-9.565,1.2-13.672c-3.443-4.106-9.564-4.644-13.672-1.2l-49.904,41.85
			h-36.891c-1.437-8.15-4.648-15.694-9.225-22.218l26.101-26.101l64.881-5.696c5.339-0.469,9.287-5.177,8.819-10.516
			c-0.468-5.34-5.185-9.28-10.516-8.82l-41.823,3.672l32.966-32.966l64.881-5.695c5.339-0.469,9.287-5.177,8.819-10.516
			c-0.468-5.34-5.186-9.28-10.516-8.82l-41.823,3.671l33.587-33.587c3.791-3.791,3.791-9.934,0-13.724
			c-3.789-3.788-9.934-3.788-13.723,0l-33.588,33.588l3.672-41.824c0.469-5.339-3.479-10.046-8.819-10.516
			c-5.335-0.463-10.048,3.479-10.516,8.82l-5.695,64.878l-32.967,32.967l3.672-41.824c0.469-5.339-3.479-10.046-8.819-10.516
			c-5.342-0.467-10.048,3.479-10.516,8.82l-5.695,64.879l-26.102,26.102c-6.525-4.577-14.068-7.788-22.218-9.225v-36.89
			l41.85-49.904c3.444-4.107,2.906-10.228-1.2-13.672c-4.107-3.444-10.228-2.906-13.672,1.2l-26.978,32.171V87.41l41.85-49.904
			c3.444-4.107,2.906-10.228-1.2-13.672c-4.107-3.445-10.228-2.906-13.672,1.2l-26.978,32.171v-47.5
			c0-5.359-4.345-9.704-9.704-9.704s-9.704,4.345-9.704,9.704v47.5l-26.98-32.17c-3.443-4.106-9.564-4.643-13.672-1.2
			c-4.106,3.444-4.643,9.565-1.2,13.672l41.85,49.904v46.621l-26.978-32.171c-3.443-4.106-9.564-4.643-13.672-1.2
			c-4.106,3.444-4.643,9.565-1.2,13.672l41.85,49.904v36.89c-8.152,1.437-15.694,4.648-22.218,9.225l-26.102-26.102l-5.695-64.879
			c-0.469-5.34-5.18-9.288-10.516-8.82c-5.339,0.469-9.287,5.177-8.819,10.516l3.672,41.824l-32.967-32.967l-5.695-64.878
			c-0.468-5.34-5.178-9.287-10.516-8.82c-5.339,0.469-9.287,5.177-8.819,10.516l3.672,41.824L88.711,74.98
			c-3.788-3.787-9.932-3.788-13.723,0c-3.791,3.791-3.791,9.934,0,13.724l33.587,33.587l-41.823-3.671
			c-5.345-0.465-10.048,3.479-10.516,8.82c-0.468,5.339,3.479,10.046,8.819,10.516l64.881,5.695l32.966,32.966l-41.823-3.672
			c-5.347-0.461-10.048,3.479-10.516,8.82c-0.469,5.339,3.479,10.046,8.819,10.516l64.881,5.696l26.101,26.101
			c-4.577,6.525-7.788,14.068-9.225,22.218h-36.891l-49.904-41.85c-4.107-3.444-10.228-2.906-13.672,1.2
			c-3.444,4.107-2.906,10.228,1.2,13.672l32.171,26.978H87.416l-49.904-41.85c-4.107-3.444-10.228-2.906-13.672,1.2
			c-3.444,4.107-2.906,10.228,1.2,13.672l32.171,26.978H9.71c-5.359,0-9.704,4.345-9.704,9.704c0,5.359,4.345,9.704,9.704,9.704
			h47.5l-32.171,26.978c-4.106,3.444-4.643,9.565-1.2,13.672c1.92,2.289,4.67,3.468,7.441,3.468c2.199,0,4.413-0.744,6.23-2.268
			l49.904-41.85h46.621l-32.171,26.978c-4.106,3.444-4.644,9.565-1.2,13.672c1.92,2.289,4.67,3.468,7.441,3.468
			c2.199,0,4.413-0.744,6.23-2.268l49.904-41.85h36.891c1.437,8.15,4.648,15.694,9.225,22.218l-26.101,26.101l-64.881,5.696
			c-5.339,0.469-9.287,5.177-8.819,10.516c0.443,5.051,4.68,8.856,9.656,8.856c0.284,0,0.571-0.012,0.86-0.036l41.823-3.672
			l-32.966,32.966l-64.881,5.695c-5.339,0.469-9.287,5.177-8.819,10.516c0.443,5.051,4.68,8.856,9.656,8.856
			c0.284,0,0.571-0.012,0.86-0.036l41.823-3.671l-33.587,33.587c-3.791,3.791-3.791,9.934,0,13.724
			c1.895,1.895,4.378,2.842,6.862,2.842s4.967-0.947,6.862-2.842l33.588-33.588l-3.672,41.824
			c-0.469,5.339,3.479,10.046,8.819,10.516c0.289,0.025,0.575,0.038,0.86,0.038c4.976,0,9.213-3.807,9.656-8.858l5.695-64.878
			l32.967-32.967l-3.672,41.824c-0.469,5.339,3.479,10.046,8.819,10.516c0.289,0.026,0.575,0.036,0.86,0.036
			c4.976,0,9.213-3.805,9.656-8.856l5.695-64.879l26.102-26.102c6.525,4.577,14.068,7.788,22.218,9.225v36.89l-41.85,49.904
			c-3.444,4.107-2.906,10.228,1.2,13.672c1.818,1.525,4.03,2.268,6.23,2.268c2.771,0,5.522-1.18,7.441-3.468l26.978-32.171v46.621
			l-41.85,49.904c-3.444,4.107-2.906,10.228,1.2,13.672c1.818,1.525,4.03,2.268,6.23,2.268c2.771,0,5.522-1.18,7.441-3.468
			l26.978-32.171v47.5c0,5.359,4.345,9.704,9.704,9.704c5.359,0,9.704-4.345,9.704-9.704v-47.5l26.978,32.171
			c1.92,2.289,4.67,3.468,7.441,3.468c2.199,0,4.413-0.744,6.23-2.268c4.106-3.444,4.644-9.565,1.2-13.672l-41.85-49.904v-46.621
			l26.978,32.171c1.92,2.289,4.67,3.468,7.441,3.468c2.199,0,4.413-0.744,6.23-2.268c4.106-3.444,4.643-9.565,1.2-13.672
			l-41.85-49.904v-36.89c8.152-1.437,15.694-4.648,22.218-9.225l26.102,26.102l5.695,64.879c0.443,5.051,4.68,8.856,9.656,8.856
			c0.284,0,0.571-0.012,0.86-0.036c5.339-0.469,9.287-5.177,8.819-10.516l-3.672-41.824l32.967,32.967l5.695,64.878
			c0.443,5.051,4.68,8.858,9.656,8.858c0.284,0,0.571-0.013,0.86-0.038c5.339-0.469,9.287-5.177,8.819-10.516l-3.672-41.824
			l33.588,33.588c1.895,1.895,4.378,2.842,6.862,2.842c2.483,0,4.967-0.947,6.862-2.842c3.791-3.791,3.791-9.934,0-13.724
			l-33.587-33.587l41.823,3.671c0.289,0.026,0.575,0.036,0.86,0.036c4.976,0,9.213-3.805,9.656-8.856
			c0.468-5.339-3.479-10.046-8.819-10.516l-64.881-5.695l-32.966-32.966l41.823,3.672c0.289,0.025,0.576,0.036,0.86,0.036
			c4.976,0,9.213-3.805,9.656-8.856c0.469-5.339-3.479-10.046-8.819-10.516l-64.881-5.696l-26.101-26.101
			c4.577-6.525,7.788-14.068,9.225-22.218h36.891l49.904,41.85c1.818,1.525,4.03,2.268,6.23,2.268c2.771,0,5.522-1.18,7.441-3.468
			c3.444-4.107,2.906-10.228-1.2-13.672l-32.171-26.978h46.621l49.905,41.85c1.818,1.525,4.03,2.268,6.23,2.268
			c2.771,0,5.522-1.18,7.441-3.468c3.444-4.107,2.906-10.228-1.2-13.672l-32.171-26.978h47.5c5.359,0,9.704-4.345,9.704-9.704
			S507.662,246.296,502.302,246.296z M256.006,292.327c-20.031,0-36.327-16.297-36.327-36.327s16.296-36.327,36.327-36.327
			S292.333,235.97,292.333,256S276.037,292.327,256.006,292.327z"/>
	</g>
</g>
<g>
</g>
<g>
</g>
<g>
</g>
<g>
</g>
<g>
</g>
<g>
</g>
<g>
</g>
<g>
</g>
<g>
</g>
<g>
</g>
<g>
</g>
<g>
</g>
<g>
</g>
<g>
</g>
<g>
</g>
</svg>
