<svg id="Capa_1" enable-background="new 0 0 474.274 474.274" height="512" viewBox="0 0 474.274 474.274" width="512" xmlns="http://www.w3.org/2000/svg"><g><g id="_x35_-petal_10_"><g id="snowflakes_10_" transform="translate(-33 -156)"><g id="_x30_11-snowflake" transform="translate(33.088 156)"><g id="Group_66_" clip-rule="evenodd" fill-rule="evenodd" transform="translate(30.912)"><path id="Fill-1_76_" d="m211.526 188.632v-118.569c0-2.974-2.415-5.389-5.389-5.389s-5.389 2.415-5.389 5.389v118.568c0 2.974 2.415 5.389 5.389 5.389 2.974.001 5.389-2.414 5.389-5.388z"/><path id="Fill-2_65_" d="m236.895 73.874c1.544-1.544 2.004-3.868 1.164-5.884l-26.947-64.673c-.837-2.009-2.799-3.317-4.975-3.317s-4.138 1.308-4.975 3.317l-26.948 64.673c-.84 2.016-.38 4.34 1.164 5.884l26.947 26.947c2.105 2.105 5.517 2.105 7.622 0zm-51.342-5.07 20.584 20.585 20.584-20.585-20.584-49.402z"/><path id="Fill-3_66_" d="m206.137 143.283 44.694-44.694c2.104-2.104 5.518-2.104 7.622 0s2.104 5.518 0 7.622l-48.505 48.505c-2.105 2.105-5.517 2.105-7.622 0l-48.505-48.505c-2.104-2.104-2.104-5.518 0-7.622s5.518-2.104 7.622 0z"/></g><g id="Group_65_" transform="translate(53.428 13)"><g id="petal-sm_54_" clip-rule="evenodd" fill-rule="evenodd" transform="matrix(.5 .866 -.866 .5 23.588 -4.856)"><path id="Fill-1_75_" d="m283.719-72.6v-118.568c0-2.974-2.415-5.389-5.389-5.389s-5.389 2.415-5.389 5.389v118.568c0 2.974 2.415 5.389 5.389 5.389s5.389-2.415 5.389-5.389z"/><path id="Fill-2_64_" d="m309.088-187.358c1.544-1.544 2.004-3.868 1.164-5.884l-26.947-64.674c-.837-2.009-2.799-3.317-4.975-3.317s-4.138 1.308-4.975 3.317l-26.947 64.674c-.84 2.016-.38 4.34 1.164 5.884l26.947 26.947c2.105 2.105 5.517 2.105 7.622 0zm-51.342-5.07 20.584 20.585 20.584-20.585-20.584-49.402z"/><path id="Fill-3_65_" d="m278.33-117.948 44.694-44.694c2.104-2.104 5.518-2.104 7.622 0s2.104 5.518 0 7.622l-48.505 48.505c-2.105 2.105-5.517 2.105-7.622 0l-48.505-48.505c-2.104-2.104-2.104-5.518 0-7.622s5.518-2.104 7.622 0z"/></g></g><g id="Group_64_" transform="translate(53.428 39)"><g id="petal-sm_53_" clip-rule="evenodd" fill-rule="evenodd" transform="matrix(-.5 .866 -.866 -.5 39.588 13.144)"><path id="Fill-1_74_" d="m93.582-265.737v-118.568c0-2.974-2.415-5.389-5.389-5.389s-5.389 2.415-5.389 5.389v118.568c0 2.974 2.415 5.389 5.389 5.389s5.389-2.415 5.389-5.389z"/><path id="Fill-2_63_" d="m118.951-380.495c1.544-1.544 2.004-3.868 1.164-5.884l-26.947-64.674c-.837-2.009-2.799-3.317-4.975-3.317s-4.138 1.308-4.975 3.317l-26.947 64.674c-.84 2.016-.38 4.34 1.164 5.884l26.947 26.947c2.105 2.105 5.517 2.105 7.622 0zm-51.342-5.07 20.584 20.585 20.584-20.585-20.584-49.402z"/><path id="Fill-3_64_" d="m88.193-311.085 44.694-44.694c2.104-2.104 5.518-2.104 7.622 0s2.104 5.518 0 7.622l-48.505 48.505c-2.105 2.105-5.517 2.105-7.622 0l-48.505-48.505c-2.104-2.104-2.104-5.518 0-7.622s5.518-2.104 7.622 0z"/></g></g><g id="Group_63_" transform="translate(30.912 52)"><g id="petal-sm_52_" clip-rule="evenodd" fill-rule="evenodd" transform="matrix(-1 0 0 -1 32 36)"><path id="Fill-1_73_" d="m-168.747-197.642v-118.568c0-2.974-2.415-5.389-5.389-5.389s-5.389 2.415-5.389 5.389v118.568c0 2.974 2.415 5.389 5.389 5.389s5.389-2.415 5.389-5.389z"/><path id="Fill-2_62_" d="m-143.379-312.4c1.544-1.544 2.004-3.868 1.164-5.884l-26.947-64.674c-.837-2.009-2.799-3.317-4.975-3.317s-4.138 1.308-4.975 3.317l-26.947 64.674c-.84 2.016-.38 4.34 1.164 5.884l26.947 26.947c2.105 2.105 5.517 2.105 7.622 0zm-51.342-5.07 20.584 20.585 20.584-20.585-20.584-49.402z"/><path id="Fill-3_63_" d="m-174.137-242.99 44.694-44.694c2.104-2.104 5.518-2.104 7.622 0s2.104 5.518 0 7.622l-48.505 48.505c-2.105 2.105-5.517 2.105-7.622 0l-48.505-48.505c-2.104-2.104-2.104-5.518 0-7.622s5.518-2.104 7.622 0z"/></g></g><g id="Group_62_" transform="translate(8.395 39)"><g id="petal-sm_51_" clip-rule="evenodd" fill-rule="evenodd" transform="matrix(-.5 -.866 .866 -.5 8.412 40.856)"><path id="Fill-1_72_" d="m-240.94 63.59v-118.568c0-2.974-2.415-5.389-5.389-5.389s-5.389 2.415-5.389 5.389v118.568c0 2.974 2.415 5.389 5.389 5.389s5.389-2.415 5.389-5.389z"/><path id="Fill-2_61_" d="m-215.572-51.168c1.544-1.544 2.004-3.868 1.164-5.884l-26.947-64.674c-.837-2.009-2.799-3.317-4.975-3.317s-4.138 1.308-4.975 3.317l-26.947 64.674c-.84 2.016-.38 4.34 1.164 5.884l26.947 26.947c2.105 2.105 5.517 2.105 7.622 0zm-51.342-5.07 20.584 20.585 20.584-20.585-20.584-49.402z"/><path id="Fill-3_62_" d="m-246.33 18.241 44.694-44.694c2.104-2.104 5.518-2.104 7.622 0s2.104 5.518 0 7.622l-48.505 48.505c-2.105 2.105-5.517 2.105-7.622 0l-48.505-48.505c-2.104-2.104-2.104-5.518 0-7.622s5.518-2.104 7.622 0z"/></g></g><g id="Group_61_" transform="translate(8.395 13)"><g id="petal-sm_50_" clip-rule="evenodd" fill-rule="evenodd" transform="matrix(.5 -.866 .866 .5 -7.588 22.856)"><path id="Fill-1_71_" d="m-50.803 256.727v-118.568c0-2.974-2.415-5.389-5.389-5.389s-5.389 2.415-5.389 5.389v118.568c0 2.974 2.415 5.389 5.389 5.389s5.389-2.415 5.389-5.389z"/><path id="Fill-2_60_" d="m-25.435 141.969c1.544-1.544 2.004-3.868 1.164-5.884l-26.947-64.674c-.837-2.009-2.799-3.317-4.975-3.317s-4.138 1.308-4.975 3.317l-26.947 64.674c-.84 2.016-.38 4.34 1.164 5.884l26.947 26.947c2.105 2.105 5.517 2.105 7.622 0zm-51.342-5.07 20.584 20.585 20.584-20.585-20.584-49.402z"/><path id="Fill-3_61_" d="m-56.193 211.378 44.694-44.694c2.104-2.104 5.518-2.104 7.622 0s2.104 5.518 0 7.622l-48.505 48.505c-2.105 2.105-5.517 2.105-7.622 0l-48.505-48.505c-2.104-2.104-2.104-5.518 0-7.622s5.518-2.104 7.622 0z"/></g></g></g><g id="c_9_" transform="translate(40 40)"><g id="Group_60_" clip-rule="evenodd" fill-rule="evenodd" transform="translate(0 120)"><path id="Fill-1_70_" d="m230.137 180.661 42.627-31.206c1.723-1.261 4.029-1.386 5.878-.319 1.85 1.068 2.894 3.127 2.663 5.25l-5.711 52.519 48.338 21.314c1.954.861 3.215 2.796 3.215 4.931s-1.261 4.07-3.215 4.931l-48.338 21.313 5.711 52.519c.231 2.123-.813 4.182-2.663 5.25s-4.155.943-5.878-.319l-42.627-31.205-42.627 31.205c-1.723 1.262-4.029 1.387-5.878.319-1.85-1.068-2.894-3.127-2.663-5.25l5.711-52.519-48.338-21.313c-1.954-.862-3.215-2.796-3.215-4.931 0-2.136 1.261-4.07 3.215-4.931l48.338-21.314-5.711-52.519c-.231-2.123.813-4.182 2.663-5.25s4.155-.943 5.878.319zm39.131-15.288-35.948 26.316c-1.895 1.387-4.472 1.387-6.367 0l-35.948-26.316 4.816 44.29c.254 2.335-1.034 4.566-3.184 5.514l-40.764 17.974 40.764 17.974c2.15.947 3.437 3.179 3.184 5.514l-4.816 44.289 35.948-26.315c1.895-1.388 4.472-1.388 6.367 0l35.948 26.315-4.816-44.289c-.254-2.335 1.034-4.566 3.184-5.514l40.764-17.975-40.764-17.974c-2.15-.948-3.437-3.179-3.184-5.514z"/><path id="Fill-3_60_" d="m230.137 207.608 15.68-11.479c1.723-1.262 4.029-1.387 5.878-.319 1.85 1.068 2.894 3.127 2.663 5.25l-2.1 19.318 17.78 7.84c1.954.861 3.215 2.796 3.215 4.931s-1.261 4.07-3.215 4.931l-17.78 7.84 2.1 19.318c.231 2.123-.813 4.182-2.663 5.25s-4.155.943-5.878-.319l-15.68-11.478-15.68 11.478c-1.723 1.262-4.029 1.387-5.878.319-1.85-1.068-2.894-3.127-2.663-5.25l2.1-19.318-17.78-7.84c-1.954-.862-3.215-2.796-3.215-4.931 0-2.136 1.261-4.07 3.215-4.931l17.78-7.84-2.1-19.318c-.231-2.123.813-4.182 2.663-5.25s4.155-.943 5.878.319zm12.184 4.439-9 6.589c-1.895 1.387-4.472 1.387-6.367 0l-9-6.589 1.206 11.089c.254 2.335-1.034 4.566-3.184 5.514l-10.207 4.5 10.207 4.5c2.149.947 3.437 3.179 3.184 5.514l-1.206 11.089 9-6.589c1.895-1.388 4.472-1.388 6.367 0l9 6.589-1.206-11.089c-.254-2.335 1.034-4.566 3.184-5.514l10.207-4.5-10.207-4.5c-2.149-.948-3.437-3.179-3.184-5.514z"/></g></g></g></g></g></svg>