<svg id="Capa_1" enable-background="new 0 0 474.274 474.274" height="512" viewBox="0 0 474.274 474.274" width="512" xmlns="http://www.w3.org/2000/svg"><g><g id="_x35_-petal"><g id="snowflakes" transform="translate(-33 -36)"><g id="_x30_01-snowflake" transform="translate(33.088 36)"><g id="Group" clip-rule="evenodd" fill-rule="evenodd" transform="translate(30.912)"><path id="Fill-1" d="m211.526 231.747v-226.358c0-2.974-2.415-5.389-5.389-5.389s-5.389 2.415-5.389 5.389v226.358c0 2.974 2.415 5.389 5.389 5.389 2.974.001 5.389-2.414 5.389-5.389z"/><path id="Fill-2" d="m206.137 57.772 23.581-18.865c2.323-1.858 5.717-1.481 7.575.842s1.481 5.717-.842 7.575l-26.947 21.558c-1.968 1.574-4.765 1.574-6.734 0l-26.947-21.558c-2.323-1.858-2.7-5.253-.842-7.575 1.858-2.323 5.253-2.7 7.575-.842z"/><path id="Fill-3" d="m206.137 127.773 55.872-45.713c2.302-1.884 5.7-1.544 7.584.759 1.884 2.302 1.544 5.7-.759 7.584l-59.284 48.505c-1.985 1.624-4.84 1.624-6.825 0l-59.285-48.505c-2.302-1.884-2.642-5.282-.759-7.584 1.884-2.302 5.282-2.642 7.584-.759z"/></g><g id="Group_1_" transform="translate(53.428 13)"><g id="petal-sm" clip-rule="evenodd" fill-rule="evenodd" transform="matrix(.5 .866 -.866 .5 23.588 -4.856)"><path id="Fill-1_1_" d="m283.719-29.484v-226.358c0-2.974-2.415-5.389-5.389-5.389s-5.389 2.415-5.389 5.389v226.358c0 2.974 2.415 5.389 5.389 5.389s5.389-2.415 5.389-5.389z"/><path id="Fill-2_1_" d="m278.33-203.46 23.581-18.865c2.323-1.858 5.717-1.481 7.575.842s1.481 5.717-.842 7.575l-26.947 21.558c-1.968 1.574-4.765 1.574-6.734 0l-26.947-21.558c-2.323-1.858-2.7-5.253-.842-7.575 1.858-2.323 5.253-2.7 7.575-.842z"/><path id="Fill-3_1_" d="m278.33-133.459 55.872-45.713c2.302-1.884 5.7-1.544 7.584.759 1.884 2.302 1.544 5.7-.759 7.584l-59.284 48.505c-1.985 1.624-4.84 1.624-6.825 0l-59.284-48.505c-2.302-1.884-2.642-5.282-.759-7.584 1.884-2.302 5.282-2.642 7.584-.759z"/></g></g><g id="Group_2_" transform="translate(53.428 39)"><g id="petal-sm_1_" clip-rule="evenodd" fill-rule="evenodd" transform="matrix(-.5 .866 -.866 -.5 39.588 13.144)"><path id="Fill-1_2_" d="m93.582-222.621v-226.358c0-2.974-2.415-5.389-5.389-5.389s-5.389 2.415-5.389 5.389v226.358c0 2.974 2.415 5.389 5.389 5.389s5.389-2.415 5.389-5.389z"/><path id="Fill-2_2_" d="m88.193-396.597 23.581-18.865c2.323-1.858 5.717-1.481 7.575.842s1.481 5.717-.842 7.575l-26.947 21.559c-1.968 1.574-4.765 1.574-6.734 0l-26.947-21.558c-2.323-1.858-2.7-5.253-.842-7.575 1.858-2.323 5.253-2.7 7.575-.842z"/><path id="Fill-3_2_" d="m88.193-326.596 55.872-45.713c2.302-1.884 5.7-1.544 7.584.759 1.884 2.302 1.544 5.7-.759 7.584l-59.284 48.506c-1.985 1.624-4.84 1.624-6.825 0l-59.284-48.505c-2.302-1.884-2.642-5.282-.759-7.584 1.884-2.302 5.282-2.642 7.584-.759z"/></g></g><g id="Group_3_" transform="translate(30.912 52)"><g id="petal-sm_2_" clip-rule="evenodd" fill-rule="evenodd" transform="matrix(-1 0 0 -1 32 36)"><path id="Fill-1_3_" d="m-168.747-154.526v-226.358c0-2.974-2.415-5.389-5.389-5.389s-5.389 2.415-5.389 5.389v226.358c0 2.974 2.415 5.389 5.389 5.389s5.389-2.415 5.389-5.389z"/><path id="Fill-2_3_" d="m-174.137-328.502 23.581-18.865c2.323-1.858 5.717-1.481 7.575.842s1.481 5.717-.842 7.575l-26.947 21.558c-1.968 1.574-4.765 1.574-6.734 0l-26.947-21.558c-2.323-1.858-2.7-5.253-.842-7.575 1.858-2.323 5.253-2.7 7.575-.842z"/><path id="Fill-3_3_" d="m-174.137-258.501 55.872-45.713c2.302-1.884 5.7-1.544 7.584.759 1.884 2.302 1.544 5.7-.759 7.584l-59.284 48.505c-1.985 1.624-4.84 1.624-6.825 0l-59.284-48.505c-2.302-1.884-2.642-5.282-.759-7.584 1.884-2.302 5.282-2.642 7.584-.759z"/></g></g><g id="Group_4_" transform="translate(8.395 39)"><g id="petal-sm_3_" clip-rule="evenodd" fill-rule="evenodd" transform="matrix(-.5 -.866 .866 -.5 8.412 40.856)"><path id="Fill-1_4_" d="m-240.94 106.705v-226.358c0-2.974-2.415-5.389-5.389-5.389s-5.389 2.415-5.389 5.389v226.358c0 2.974 2.415 5.389 5.389 5.389s5.389-2.414 5.389-5.389z"/><path id="Fill-2_4_" d="m-246.33-67.27 23.581-18.865c2.323-1.858 5.717-1.481 7.575.842s1.481 5.717-.842 7.575l-26.947 21.558c-1.968 1.574-4.765 1.574-6.734 0l-26.947-21.558c-2.323-1.858-2.7-5.253-.842-7.575 1.858-2.323 5.253-2.7 7.575-.842z"/><path id="Fill-3_4_" d="m-246.33 2.731 55.872-45.713c2.302-1.884 5.7-1.544 7.584.759 1.884 2.302 1.544 5.7-.759 7.584l-59.284 48.505c-1.985 1.624-4.84 1.624-6.825 0l-59.284-48.505c-2.302-1.884-2.642-5.282-.759-7.584 1.884-2.302 5.282-2.642 7.584-.759z"/></g></g><g id="Group_5_" transform="translate(8.395 13)"><g id="petal-sm_4_" clip-rule="evenodd" fill-rule="evenodd" transform="matrix(.5 -.866 .866 .5 -7.588 22.856)"><path id="Fill-1_5_" d="m-50.803 299.842v-226.358c0-2.974-2.415-5.389-5.389-5.389s-5.389 2.415-5.389 5.389v226.358c0 2.974 2.415 5.389 5.389 5.389 2.973.001 5.389-2.414 5.389-5.389z"/><path id="Fill-2_5_" d="m-56.193 125.867 23.581-18.865c2.323-1.858 5.717-1.481 7.575.842s1.481 5.717-.842 7.575l-26.947 21.558c-1.968 1.574-4.765 1.574-6.734 0l-26.947-21.558c-2.323-1.858-2.7-5.253-.842-7.575 1.858-2.323 5.253-2.7 7.575-.842z"/><path id="Fill-3_5_" d="m-56.193 195.868 55.872-45.713c2.302-1.884 5.7-1.544 7.584.759 1.884 2.302 1.544 5.7-.759 7.584l-59.284 48.505c-1.985 1.624-4.84 1.624-6.825 0l-59.284-48.505c-2.302-1.884-2.642-5.282-.759-7.584 1.884-2.302 5.282-2.642 7.584-.759z"/></g></g></g><g id="Fill-1_6_" transform="translate(40 40)"><path clip-rule="evenodd" d="m230.137 180.66 42.627-31.206c1.723-1.261 4.029-1.386 5.878-.319s2.894 3.127 2.663 5.25l-5.711 52.519 48.338 21.314c1.954.861 3.215 2.796 3.215 4.931s-1.261 4.07-3.215 4.931l-48.338 21.313 5.711 52.519c.231 2.123-.813 4.182-2.663 5.25s-4.155.943-5.878-.319l-42.627-31.205-42.627 31.205c-1.723 1.262-4.029 1.387-5.878.319-1.85-1.068-2.894-3.127-2.663-5.25l5.711-52.519-48.338-21.313c-1.954-.862-3.215-2.796-3.215-4.931 0-2.136 1.261-4.07 3.215-4.931l48.338-21.314-5.711-52.519c-.231-2.123.813-4.182 2.663-5.25s4.155-.943 5.878.319zm39.131-15.287-35.948 26.316c-1.895 1.387-4.472 1.387-6.367 0l-35.948-26.316 4.816 44.29c.254 2.335-1.034 4.566-3.184 5.514l-40.764 17.974 40.764 17.974c2.15.947 3.437 3.179 3.184 5.514l-4.816 44.289 35.948-26.315c1.895-1.388 4.472-1.388 6.367 0l35.948 26.315-4.816-44.289c-.254-2.335 1.034-4.567 3.184-5.514l40.764-17.975-40.764-17.974c-2.15-.948-3.437-3.179-3.184-5.514z" fill-rule="evenodd"/></g></g></g></g></svg>