<?xml version="1.0" encoding="UTF-8" standalone="no"?>
<!-- Created with Inkscape (http://www.inkscape.org/) -->

<svg
   version="1.1"
   id="svg2583"
   xml:space="preserve"
   width="682.66669"
   height="682.66669"
   viewBox="0 0 682.66669 682.66669"
   xmlns="http://www.w3.org/2000/svg"
   xmlns:svg="http://www.w3.org/2000/svg"><defs
     id="defs2587"><clipPath
       clipPathUnits="userSpaceOnUse"
       id="clipPath2597"><path
         d="M 0,512 H 512 V 0 H 0 Z"
         id="path2595" /></clipPath></defs><g
     id="g2589"
     transform="matrix(1.3333333,0,0,-1.3333333,0,682.66667)"><g
       id="g2591"><g
         id="g2593"
         clip-path="url(#clipPath2597)"><g
           id="g2599"
           transform="translate(305.0815,227.6436)"><path
             d="M 0,0 -49.087,-28.34 -98.172,0 V 56.68 L -49.087,85.02 0,56.68 Z m -169.651,170.379 -3.396,13.458 c -2.31,9.16 -11.604,14.71 -20.774,12.402 -9.161,-2.311 -14.714,-11.613 -12.403,-20.774 l 11.303,-44.793 -46.599,26.412 c -8.219,4.66 -18.662,1.773 -23.32,-6.448 -4.659,-8.221 -1.772,-18.661 6.449,-23.32 l 46.597,-26.411 -44.231,-13.315 c -9.049,-2.725 -14.174,-12.267 -11.451,-21.315 2.229,-7.404 9.023,-12.181 16.376,-12.18 1.633,0 3.294,0.235 4.938,0.729 l 75.544,22.743 38.229,-21.667 V 0.812 l -38.228,-21.666 -75.545,22.743 c -9.05,2.721 -18.59,-2.404 -21.314,-11.452 -2.723,-9.047 2.402,-18.589 11.451,-21.314 l 44.231,-13.315 -46.597,-26.412 c -8.221,-4.658 -11.108,-15.098 -6.449,-23.319 3.149,-5.556 8.939,-8.676 14.9,-8.676 2.858,0 5.756,0.717 8.42,2.228 l 46.599,26.411 -11.303,-44.792 c -2.311,-9.161 3.242,-18.463 12.403,-20.774 1.406,-0.355 2.813,-0.525 4.198,-0.525 7.651,0 14.62,5.171 16.576,12.927 l 19.305,76.504 37.753,21.397 49.794,-28.75 10e-4,-43.672 -21.107,-20.172 m -21.69,-20.73 -14.236,-13.605 c -6.831,-6.529 -7.075,-17.359 -0.547,-24.19 6.529,-6.831 17.36,-7.074 24.189,-0.548 l 33.393,31.915 0.002,-53.561 c 0,-9.448 7.66,-17.108 17.108,-17.108 9.45,0 17.109,7.661 17.109,17.11 l -0.002,53.563 33.397,-31.919 c 3.314,-3.167 7.57,-4.74 11.819,-4.74 4.507,0 9.009,1.772 12.37,5.288 6.528,6.831 6.284,17.661 -0.548,24.19 l -57.04,54.513 -0.001,43.667 49.79,28.746 37.769,-21.403 19.302,-76.495 c 1.958,-7.756 8.925,-12.927 16.575,-12.927 1.387,0 2.796,0.17 4.199,0.525 9.163,2.311 14.715,11.613 12.404,20.774 l -11.302,44.787 46.598,-26.407 c 2.665,-1.51 5.562,-2.227 8.421,-2.227 5.959,0 11.75,3.12 14.9,8.677 4.657,8.22 1.771,18.661 -6.449,23.319 l -46.602,26.41 44.236,13.316 c 9.047,2.725 14.174,12.267 11.449,21.314 -2.725,9.049 -12.268,14.176 -21.313,11.452 L 72.447,-20.856 34.217,0.808 v 55.096 l 38.231,21.665 27.414,-8.253 m 28.726,-8.648 19.411,-5.844 c 1.644,-0.494 3.304,-0.729 4.938,-0.729 7.354,0 14.146,4.777 16.375,12.18 2.725,9.048 -2.402,18.59 -11.449,21.315 l -44.236,13.316 46.602,26.409 c 8.22,4.659 11.106,15.1 6.449,23.32 -4.658,8.22 -15.099,11.107 -23.321,6.45 l -46.598,-26.408 11.302,44.788 c 2.311,9.161 -3.241,18.463 -12.404,20.774 -9.157,2.309 -18.462,-3.24 -20.774,-12.402 l -19.302,-76.495 -37.797,-21.42 -49.762,28.729 0.001,43.701 57.04,54.514 c 6.832,6.528 7.076,17.358 0.548,24.189 -6.529,6.831 -17.361,7.075 -24.189,0.547 l -33.397,-31.918 0.002,53.563 c 0,9.449 -7.659,17.109 -17.109,17.109 -9.448,0 -17.108,-7.659 -17.108,-17.107 l -0.002,-53.562 -33.393,31.915 c -6.831,6.529 -17.66,6.284 -24.189,-0.547 -6.528,-6.831 -6.284,-17.661 0.547,-24.189 l 57.033,-54.509 -10e-4,-43.706 -49.766,-28.732 -37.781,21.414 -8.568,33.955"
             style="fill:none;stroke:#000000;stroke-width:15;stroke-linecap:round;stroke-linejoin:round;stroke-miterlimit:10;stroke-dasharray:none;stroke-opacity:1"
             id="path2601" /></g></g></g></g></svg>
