<svg id="Capa_1" enable-background="new 0 0 512 512" height="512" viewBox="0 0 512 512" width="512" xmlns="http://www.w3.org/2000/svg"><g><path d="m504.5 248.5h-46.022l19.261-19.261c2.929-2.929 2.929-7.678 0-10.606-2.929-2.929-7.678-2.929-10.606 0l-29.868 29.867h-34.9l43.31-43.31c2.929-2.929 2.929-7.678 0-10.606-2.929-2.929-7.678-2.929-10.606 0l-53.917 53.916h-112.162l19.473-33.728 68.828-17.253-18.502 19.111c-2.881 2.976-2.804 7.724.172 10.605s7.724 2.805 10.605-.172l36.782-37.993c2.33-2.407 2.781-6.066 1.106-8.967s-5.067-4.34-8.319-3.525l-80.233 20.111 26.169-45.326 73.651-19.734c4.001-1.072 6.375-5.185 5.304-9.186-1.072-4.001-5.187-6.373-9.186-5.304l-59.163 15.853 17.45-30.224 40.8-10.932c4.001-1.072 6.375-5.185 5.304-9.186-1.072-4.001-5.188-6.373-9.186-5.304l-26.312 7.05 23.011-39.857c2.071-3.587.842-8.174-2.745-10.245-3.588-2.072-8.174-.842-10.245 2.745l-23.011 39.857-7.05-26.311c-1.072-4.001-5.185-6.373-9.186-5.304-4.001 1.072-6.375 5.185-5.304 9.186l10.932 40.8-17.45 30.224-15.852-59.162c-1.072-4.001-5.187-6.374-9.186-5.304-4.001 1.072-6.375 5.185-5.304 9.186l19.735 73.652-26.169 45.325-22.7-79.54c-.919-3.221-3.862-5.442-7.212-5.442s-6.293 2.221-7.212 5.442l-22.7 79.54-26.169-45.325 19.735-73.652c1.072-4.001-1.303-8.113-5.304-9.186-3.996-1.07-8.113 1.302-9.186 5.304l-15.852 59.162-17.45-30.224 10.932-40.8c1.072-4.001-1.303-8.113-5.304-9.186-3.997-1.069-8.113 1.302-9.186 5.304l-7.05 26.311-23.011-39.857c-2.071-3.588-6.658-4.817-10.245-2.745-3.587 2.071-4.816 6.658-2.745 10.245l23.016 39.861-26.312-7.05c-3.999-1.069-8.113 1.303-9.186 5.304-1.072 4.001 1.303 8.113 5.304 9.186l40.8 10.932 17.45 30.224-59.163-15.853c-3.995-1.072-8.113 1.302-9.186 5.304-1.072 4.001 1.303 8.113 5.304 9.186l73.651 19.734 26.169 45.326-80.233-20.111c-3.248-.815-6.644.624-8.319 3.525s-1.223 6.56 1.106 8.967l57.534 59.428h-52.338l-53.916-53.916c-2.929-2.929-7.678-2.929-10.606 0-2.929 2.929-2.929 7.678 0 10.606l43.31 43.31h-34.9l-29.868-29.868c-2.929-2.929-7.678-2.929-10.606 0-2.929 2.929-2.929 7.678 0 10.606l19.261 19.26h-46.022c-4.142 0-7.5 3.358-7.5 7.5s3.358 7.5 7.5 7.5h46.022l-19.261 19.261c-2.929 2.929-2.929 7.678 0 10.606 1.464 1.464 3.384 2.197 5.303 2.197s3.839-.732 5.303-2.197l29.868-29.867h34.9l-43.31 43.31c-2.929 2.929-2.929 7.678 0 10.606 1.464 1.464 3.384 2.197 5.303 2.197s3.839-.732 5.303-2.197l53.916-53.916h112.163l-19.473 33.728-68.828 17.253 18.502-19.111c2.881-2.976 2.804-7.724-.172-10.605s-7.724-2.804-10.605.172l-36.782 37.993c-2.33 2.407-2.781 6.066-1.106 8.967 1.674 2.9 5.067 4.339 8.319 3.525l80.233-20.111-26.169 45.326-73.651 19.734c-4.001 1.072-6.375 5.185-5.304 9.186 1.072 4.001 5.187 6.374 9.186 5.304l59.163-15.853-17.45 30.224-40.8 10.932c-4.001 1.072-6.375 5.185-5.304 9.186 1.072 4.001 5.188 6.374 9.186 5.304l26.312-7.05-23.011 39.857c-2.071 3.587-.842 8.174 2.745 10.245 1.181.682 2.471 1.006 3.743 1.006 2.592 0 5.113-1.346 6.502-3.751l23.011-39.857 7.05 26.311c.898 3.351 3.928 5.561 7.24 5.561.643 0 1.296-.083 1.946-.257 4.001-1.072 6.375-5.185 5.304-9.186l-10.932-40.8 17.45-30.224 15.852 59.162c.898 3.351 3.928 5.561 7.24 5.561.643 0 1.296-.083 1.946-.257 4.001-1.072 6.375-5.185 5.304-9.186l-19.735-73.652 26.169-45.325 22.7 79.54c.919 3.221 3.862 5.442 7.212 5.442s6.293-2.221 7.212-5.442l22.7-79.54 26.169 45.325-19.735 73.652c-1.072 4.001 1.303 8.113 5.304 9.186.65.174 1.303.257 1.946.257 3.311 0 6.342-2.21 7.24-5.561l15.852-59.162 17.45 30.224-10.932 40.8c-1.072 4.001 1.303 8.113 5.304 9.186.65.174 1.303.257 1.946.257 3.311 0 6.342-2.21 7.24-5.561l7.05-26.311 23.011 39.857c1.389 2.406 3.91 3.751 6.502 3.751 1.272 0 2.562-.324 3.743-1.006 3.587-2.071 4.816-6.658 2.745-10.245l-23.011-39.857 26.312 7.05c4 1.071 8.113-1.302 9.186-5.304 1.072-4.001-1.303-8.113-5.304-9.186l-40.8-10.932-17.45-30.224 59.163 15.853c3.997 1.073 8.113-1.302 9.186-5.304 1.072-4.001-1.303-8.113-5.304-9.186l-73.651-19.734-26.169-45.326 80.233 20.111c3.25.815 6.644-.624 8.319-3.525s1.223-6.56-1.106-8.967l-57.54-59.43h52.338l53.916 53.916c1.464 1.464 3.384 2.197 5.303 2.197s3.839-.732 5.303-2.197c2.929-2.929 2.929-7.678 0-10.606l-43.31-43.31h34.9l29.868 29.868c1.464 1.464 3.384 2.197 5.303 2.197s3.839-.732 5.303-2.197c2.929-2.929 2.929-7.678 0-10.606l-19.26-19.262h46.022c4.142 0 7.5-3.358 7.5-7.5s-3.358-7.5-7.5-7.5zm-248.5-109.461 19.473 68.233-19.473 33.728-19.473-33.728zm-101.291 58.481 68.828 17.253 19.473 33.727h-38.945zm101.291 175.442-19.473-68.233 19.473-33.729 19.473 33.728zm101.291-58.481-68.828-17.253-19.473-33.728h38.945z"/></g></svg>