<?xml version="1.0" encoding="UTF-8" standalone="no"?>
<!-- Created with Inkscape (http://www.inkscape.org/) -->

<svg
   version="1.1"
   id="svg2649"
   xml:space="preserve"
   width="682.66669"
   height="682.66669"
   viewBox="0 0 682.66669 682.66669"
   xmlns="http://www.w3.org/2000/svg"
   xmlns:svg="http://www.w3.org/2000/svg"><defs
     id="defs2653"><clipPath
       clipPathUnits="userSpaceOnUse"
       id="clipPath2663"><path
         d="M 0,512 H 512 V 0 H 0 Z"
         id="path2661" /></clipPath></defs><g
     id="g2655"
     transform="matrix(1.3333333,0,0,-1.3333333,0,682.66667)"><g
       id="g2657"><g
         id="g2659"
         clip-path="url(#clipPath2663)"><g
           id="g2665"
           transform="translate(271,281.9805)"><path
             d="m 0,0 c 4.42,-2.54 8.25,-6.25 10.98,-10.98 2.73,-4.731 4.03,-9.901 4.02,-15 -0.01,-10.361 -5.39,-20.441 -15,-25.981 -9.62,-5.56 -21.03,-5.18 -30,0 -4.42,2.54 -8.25,6.25 -10.98,10.981 -2.74,4.73 -4.03,9.9 -4.03,15 0.01,10.36 5.4,20.44 15.01,25.98 9.62,5.55 21.02,5.17 30,0 z"
             style="fill:none;stroke:#000000;stroke-width:20;stroke-linecap:round;stroke-linejoin:round;stroke-miterlimit:10;stroke-dasharray:none;stroke-opacity:1"
             id="path2667" /></g><g
           id="g2669"
           transform="translate(136,463.8496)"><path
             d="M 0,0 105,-181.869"
             style="fill:none;stroke:#000000;stroke-width:20;stroke-linecap:round;stroke-linejoin:round;stroke-miterlimit:10;stroke-dasharray:none;stroke-opacity:1"
             id="path2671" /></g><g
           id="g2673"
           transform="translate(99.04,407.8701)"><path
             d="M 0,0 81.96,-21.97 103.92,60"
             style="fill:none;stroke:#000000;stroke-width:20;stroke-linecap:round;stroke-linejoin:round;stroke-miterlimit:10;stroke-dasharray:none;stroke-opacity:1"
             id="path2675" /></g><g
           id="g2677"
           transform="translate(412.96,104.1299)"><path
             d="M 0,0 -81.96,21.97 -103.92,-60"
             style="fill:none;stroke:#000000;stroke-width:20;stroke-linecap:round;stroke-linejoin:round;stroke-miterlimit:10;stroke-dasharray:none;stroke-opacity:1"
             id="path2679" /></g><g
           id="g2681"
           transform="translate(10,256)"><path
             d="M 0,0 H 216"
             style="fill:none;stroke:#000000;stroke-width:20;stroke-linecap:round;stroke-linejoin:round;stroke-miterlimit:10;stroke-dasharray:none;stroke-opacity:1"
             id="path2683" /></g><g
           id="g2685"
           transform="translate(286,256)"><path
             d="M 0,0 H 216"
             style="fill:none;stroke:#000000;stroke-width:20;stroke-linecap:round;stroke-linejoin:round;stroke-miterlimit:10;stroke-dasharray:none;stroke-opacity:1"
             id="path2687" /></g><g
           id="g2689"
           transform="translate(46,196)"><path
             d="M 0,0 60,60 0,120"
             style="fill:none;stroke:#000000;stroke-width:20;stroke-linecap:round;stroke-linejoin:round;stroke-miterlimit:10;stroke-dasharray:none;stroke-opacity:1"
             id="path2691" /></g><g
           id="g2693"
           transform="translate(466,316)"><path
             d="M 0,0 -60,-60 0,-120"
             style="fill:none;stroke:#000000;stroke-width:20;stroke-linecap:round;stroke-linejoin:round;stroke-miterlimit:10;stroke-dasharray:none;stroke-opacity:1"
             id="path2695" /></g><g
           id="g2697"
           transform="translate(136,48.1504)"><path
             d="M 0,0 105,181.869"
             style="fill:none;stroke:#000000;stroke-width:20;stroke-linecap:round;stroke-linejoin:round;stroke-miterlimit:10;stroke-dasharray:none;stroke-opacity:1"
             id="path2699" /></g><g
           id="g2701"
           transform="translate(271,281.9805)"><path
             d="M 0,0 105,181.869"
             style="fill:none;stroke:#000000;stroke-width:20;stroke-linecap:round;stroke-linejoin:round;stroke-miterlimit:10;stroke-dasharray:none;stroke-opacity:1"
             id="path2703" /></g><g
           id="g2705"
           transform="translate(202.96,44.1299)"><path
             d="M 0,0 -21.96,81.97 -103.92,60"
             style="fill:none;stroke:#000000;stroke-width:20;stroke-linecap:round;stroke-linejoin:round;stroke-miterlimit:10;stroke-dasharray:none;stroke-opacity:1"
             id="path2707" /></g><g
           id="g2709"
           transform="translate(309.04,467.8701)"><path
             d="M 0,0 21.96,-81.97 103.92,-60"
             style="fill:none;stroke:#000000;stroke-width:20;stroke-linecap:round;stroke-linejoin:round;stroke-miterlimit:10;stroke-dasharray:none;stroke-opacity:1"
             id="path2711" /></g><g
           id="g2713"
           transform="translate(294.04,321.8799)"><path
             d="m 0,0 117.84,24.12 -79.8,-90 79.8,-90 -117.84,24.12 -38.04,-114.12 -38.04,114.12 -117.85,-24.12 79.81,90 -79.81,90 L -76.08,0 -38.04,114.12 Z"
             style="fill:none;stroke:#000000;stroke-width:20;stroke-linecap:round;stroke-linejoin:round;stroke-miterlimit:10;stroke-dasharray:none;stroke-opacity:1"
             id="path2715" /></g><g
           id="g2717"
           transform="translate(385.9995,48)"><path
             d="m 0,0 c 0,-5.522 -4.477,-10 -10,-10 -5.522,0 -10,4.478 -10,10 0,5.522 4.478,10 10,10 C -4.477,10 0,5.522 0,0"
             style="fill:#000000;fill-opacity:1;fill-rule:nonzero;stroke:none"
             id="path2719" /></g><g
           id="g2721"
           transform="translate(271,230.0195)"><path
             d="M 0,0 82.571,-143.018"
             style="fill:none;stroke:#000000;stroke-width:20;stroke-linecap:round;stroke-linejoin:round;stroke-miterlimit:10;stroke-dasharray:none;stroke-opacity:1"
             id="path2723" /></g></g></g></g></svg>
