<?xml version="1.0"?>
<svg xmlns="http://www.w3.org/2000/svg" id="Artwork" viewBox="0 0 512 512" width="512" height="512"><path d="M473.53,371.3,414.3,336.75l56.27-16.19a10,10,0,0,0-5.52-19.22L390.4,322.81,368.45,310l56.28-16.18a10,10,0,1,0-5.53-19.22l-74.65,21.46-10.17-5.93-.08-.05L310.38,257l26.28-36.42,7.89-4.6,74.65,21.46a9.87,9.87,0,0,0,2.77.4,10,10,0,0,0,2.76-19.62L368.45,202l21.95-12.8,74.65,21.47a10.16,10.16,0,0,0,2.76.39,10,10,0,0,0,2.76-19.61l-56.28-16.19,59.24-34.55a10,10,0,1,0-10.07-17.27L404.22,158,417.84,101a10,10,0,1,0-19.45-4.65l-18.07,75.54-21.94,12.8L372,127.76a10,10,0,1,0-19.45-4.65l-18.07,75.54L324,204.75l-40.78,4.5L266,169.54V159.32l56.15-53.67a10,10,0,0,0-13.82-14.46L266,131.65v-25.4l56.15-53.67a10,10,0,0,0-13.82-14.46L266,78.58V10a10,10,0,1,0-20,0V78.58L203.67,38.12a10,10,0,1,0-13.82,14.46L246,106.24v25.41L203.67,91.19a10,10,0,0,0-13.82,14.46L246,159.32V169.5l-17.27,39.75L188,204.75l-10.46-6.1-18.07-75.54A10,10,0,1,0,140,127.76l13.62,57-21.94-12.8L113.61,96.37A10,10,0,1,0,94.16,101l13.62,57L48.54,123.43A10,10,0,1,0,38.47,140.7L97.7,175.25,41.43,191.44a10,10,0,0,0,2.75,19.61,10.18,10.18,0,0,0,2.77-.39l74.65-21.47,22,12.8L87.27,218.17a10,10,0,1,0,5.53,19.22l74.65-21.46,7.85,4.58L201.6,257l-23.93,33.16-.06,0-10.16,5.92L92.8,274.61a10,10,0,1,0-5.53,19.22L143.55,310l-22,12.8L47,301.34a10,10,0,0,0-5.52,19.22L97.7,336.75,38.47,371.3a10,10,0,0,0,5.05,18.64,9.86,9.86,0,0,0,5-1.37L107.78,354,94.16,411a10,10,0,0,0,7.4,12,9.83,9.83,0,0,0,2.33.28,10,10,0,0,0,9.72-7.68l18.07-75.54,21.94-12.8L140,384.24a10,10,0,1,0,19.45,4.65l18.07-75.54,6.47-3.77h.24l44.5-4.91L246,344.4v8.28l-56.15,53.67a10,10,0,0,0,13.82,14.46L246,380.35v25.4l-56.15,53.67a10,10,0,0,0,13.82,14.46L246,433.42V502a10,10,0,0,0,20,0V433.42l42.33,40.46a10,10,0,0,0,13.82-14.46L266,405.75v-25.4l42.33,40.46a10,10,0,0,0,13.82-14.46L266,352.68v-8.32l17.25-39.7,44.5,4.91H328l6.47,3.77,18.07,75.54A10,10,0,1,0,372,384.24l-13.63-56.95,21.95,12.8,18.07,75.54a10,10,0,0,0,9.72,7.68,9.83,9.83,0,0,0,2.33-.28,10,10,0,0,0,7.4-12l-13.62-57,59.24,34.55a9.86,9.86,0,0,0,5,1.37,10,10,0,0,0,5-18.64ZM289.94,262.8l17.62,24.42L278.12,284a10,10,0,0,0-10.27,5.95L256,317.21l-11.86-27.29a10,10,0,0,0-9.17-6,10.28,10.28,0,0,0-1.1.06l-29.44,3.25L222,262.8a10,10,0,0,0,0-11.7l-17.62-24.42,29.44,3.25a10,10,0,0,0,10.27-6L256,196.69,267.85,224a10,10,0,0,0,10.27,6l29.44-3.25L289.94,251.1A10,10,0,0,0,289.94,262.8Z"/></svg>
