<svg id="Layer_1" enable-background="new 0 0 512 512" height="512" viewBox="0 0 512 512" width="512" xmlns="http://www.w3.org/2000/svg"><g><path clip-rule="evenodd" d="m275.914 183.047v43.921l38.338-21.961c0-.744-.373-1.489-.373-1.861l-2.605-37.222-33.871 16.378c-.373.372-.745.372-1.489.745zm-3.35 53.226c-.373 0-1.117 0-1.489-.372-1.117-.745-1.862-1.862-1.862-2.978v-52.483c0-1.861 1.117-2.977 2.606-3.35 1.116-.372 2.232-.372 2.605-.745l38.338-18.61c1.116-.744 2.234-.744 3.35 0 .745.373 1.489 1.489 1.489 2.605l2.978 42.432c0 1.117.372 1.862.743 2.606.373 1.488 0 3.35-1.488 4.094l-45.41 26.427c-.744.374-1.116.374-1.86.374zm-74.816-31.266 44.666 25.683v-47.643c-.373-.373-1.116-.373-1.489-.745l-40.199-19.728-2.605 40.572c0 .745-.373 1.116-.373 1.861zm48.016 34.988c-.372 0-1.116 0-1.489-.373l-52.11-30.148c-1.489-.745-1.861-2.606-1.489-4.094.373-.744.745-1.489.745-2.606l2.978-45.409c.372-1.117.745-2.234 1.861-2.606 1.117-.743 2.234-.743 2.978-.372l44.666 21.96c.745.373 1.861.373 2.605.745 1.489.373 2.605 1.489 2.605 3.35v56.205c0 1.116-.372 2.232-1.489 2.977-.372.371-1.117.371-1.861.371zm43.548 17.866 41.689 23.822c.372-.373.743-.744 1.488-1.117l33.499-22.705-33.871-22.705c-.373-.373-.745-.745-1.116-1.117zm42.061 31.639c-.372 0-1.116-.373-1.489-.744l-48.76-27.916c-1.116-.744-1.861-1.862-1.861-2.978s.745-2.234 1.861-2.978l48.76-28.288c1.489-.744 2.978-.372 4.094.745.745 1.116 1.489 1.489 2.234 2.234l37.594 25.31c1.116.744 1.489 1.862 1.489 2.978s-.373 2.234-1.489 2.605l-37.594 26.056c-.744.372-1.489.744-2.234 1.489-.744.743-1.489 1.487-2.605 1.487zm-185.362-31.639 33.498 23.078c.744 0 1.117.372 1.489.744l41.688-23.822-41.688-24.194c-.372.372-.745.744-1.116 1.116zm34.616 31.639c-1.117 0-1.861-.744-2.605-1.489-.373-.373-1.117-1.117-1.862-1.489l-38.338-26.056c-.743-.372-1.488-1.489-1.488-2.605s.745-2.234 1.488-2.978l37.967-25.31c1.116-.745 1.861-1.489 2.234-2.234 1.116-1.116 2.977-1.489 4.094-.745l48.76 28.288c1.116.744 1.861 1.862 1.861 2.978s-.744 2.234-1.861 2.978l-48.76 27.916c-.374.373-.746.746-1.49.746zm95.287 47.271c.745 0 1.116.372 1.861.372l33.127 16.377 2.978-40.943c0-.745.373-1.116.373-1.861l-38.338-21.96v48.015zm37.965 25.31c-.372 0-.745 0-1.489-.372l-37.594-18.239c-1.116-.745-1.861-.745-2.605-.745-1.489-.372-2.978-1.861-2.978-3.35v-56.577c0-1.116.744-2.234 1.862-2.977.745-.373 2.234-.373 3.35 0l45.41 26.427c1.116.743 1.861 2.232 1.488 3.721-.372 1.117-.743 1.861-.743 2.605l-3.351 46.527c0 1.117-.372 1.862-1.488 2.606-.373.374-1.118.374-1.862.374zm-116.131-51.366c0 .373.373 1.116.373 1.489l2.977 44.293 39.827-19.355c.745 0 1.116-.372 1.489-.372v-52.11zm.373 54.344c-.373 0-1.117 0-1.489-.373-1.117-.745-1.862-1.488-1.862-2.605l-3.35-49.132c0-.745-.372-1.861-.745-2.978-.372-1.489 0-2.978 1.489-3.721l52.11-30.15c1.117-.745 2.234-.745 3.35 0 1.117.744 1.489 1.861 1.489 2.977v60.3c0 1.489-1.116 2.978-2.977 3.35-.744 0-1.489 0-2.234.745l-44.293 21.216c-.372.371-.743.371-1.488.371zm47.643 69.976c.373 0 .744 0 1.117.373 1.488.372 2.232 1.489 2.232 2.977v31.266c0 5.583 4.839 10.05 10.05 10.05 5.583 0 10.049-4.467 10.049-10.05v-31.266c0-1.488 1.117-2.605 2.234-2.977 1.489-.745 2.978 0 4.094 1.116l20.472 31.266c1.489 2.234 4.094 3.723 6.699 4.094 2.605.373 5.212 0 7.444-1.489 2.234-1.489 3.723-3.721 4.096-6.328.372-2.605 0-5.21-1.489-7.444l-42.061-62.532c-.372-.745-.745-1.116-.745-1.489-.372-.371-.744-1.116-.744-1.861v-22.705c0-1.117.744-2.234 1.489-2.607 1.117-.745 2.234-.745 3.35-.372l39.456 19.355c1.116.372 1.861 1.489 1.861 2.978v.745c-.372 2.605.745 5.21 2.234 7.444 1.861 1.861 4.466 2.978 7.072 3.35 2.605 0 5.583-1.116 7.815-2.978.745-1.116 1.862-1.116 2.978-1.116 4.839 1.116 9.677-1.116 11.539-5.212 2.605-4.839.372-10.794-4.467-13.399l-4.094-1.862c-1.117-.743-1.861-1.861-1.861-3.35l3.35-47.643c0-1.117.745-2.234 1.861-2.605.745-.745 2.234-.745 2.978 0l19.727 11.166c.744.372 1.117.743 1.489 1.488 0 .373 0 .745.373.745v.744l33.498 67.744c2.234 4.839 8.19 7.072 13.4 4.466 4.839-2.232 6.701-8.188 4.467-13.027l-16.75-33.871c-.373-1.117-.373-2.978.744-3.723 1.116-1.116 2.978-1.489 4.094-.745l33.499 19.355c2.234 1.489 5.21 1.862 7.444 1.117 2.605-.745 4.839-2.234 6.328-4.467 2.605-4.839 1.116-11.166-3.723-13.772l-33.5-19.355c-1.488-.745-2.232-2.234-1.861-3.723.373-1.489 1.861-2.234 3.35-2.605l37.222-2.605c5.583-.373 9.677-5.212 9.305-10.422-.372-2.605-1.488-5.212-3.35-6.701-2.234-1.861-4.466-2.605-7.072-2.605l-75.559 5.212c-.372 0-.745 0-.745 0-1.116.372-1.861 0-2.605-.373l-19.728-11.167c-1.116-.745-1.489-1.861-1.489-2.977-.372-1.117.373-2.234 1.489-2.978l39.083-26.427c1.489-1.117 2.978-.744 4.094 0l.745.745c1.861 1.116 4.839 1.861 7.444 1.116 2.606-.372 4.839-1.861 6.328-4.094 1.862-2.978 2.234-6.699.745-9.677-.372-1.117-.372-2.234 0-2.978 1.489-2.978 1.117-6.699-.745-9.677-3.35-4.466-9.304-5.583-14.143-2.605l-.373.372c-1.116.744-2.605.744-3.721 0l-39.456-26.427c-1.116-.745-1.489-1.861-1.489-2.977 0-1.117.373-2.234 1.489-2.606l19.728-11.538c.744-.372 1.861-.745 2.605-.372h.745l75.559 5.21c2.606.373 4.839-.745 7.072-2.605 1.862-1.489 2.978-4.094 3.35-6.701 0-2.605-.745-5.21-2.605-7.071-1.489-2.234-4.094-3.351-6.699-3.351l-37.222-2.605c-1.489 0-2.977-1.116-3.35-2.605-.372-1.489.373-2.978 1.861-3.723l33.5-19.355c4.839-2.605 6.328-8.933 3.723-13.4-2.605-4.839-8.933-6.699-13.772-3.721l-33.499 19.355c-1.116.744-2.978.372-4.094-.373-1.117-1.116-1.117-2.605-.744-4.094l16.75-33.499c2.234-5.21.372-11.165-4.467-13.399-5.21-2.605-11.167-.373-13.4 4.466l-33.498 67.744-3.351-.745 3.351 1.489c-.373.372-.373.745-.745 1.116-.373.373-.745.745-1.117 1.117l-19.727 11.167c-.745.745-2.234.745-2.978 0-1.116-.373-1.861-1.489-1.861-2.607l-2.978-43.921c-.372-1.488.372-2.605 1.861-3.35l3.723-1.861c4.839-2.234 7.072-8.561 4.467-13.4-1.489-3.721-5.583-5.583-9.679-5.583-1.116 0-2.605-.745-2.977-1.861-1.862-3.723-5.956-5.955-10.05-5.583-2.234.372-4.839 1.489-6.328 3.35-1.861 1.861-2.977 4.839-2.605 7.444l.373 4.095c0 1.488-.745 2.977-1.862 3.35l-39.827 19.355c-1.116.372-2.232.372-3.35-.372-.745-.373-1.489-1.489-1.489-2.606v-22.705c0-1.117.373-1.861 1.117-2.605 0 0 .372-.373.372-.744l42.061-62.532c1.489-2.234 1.861-4.839 1.489-7.445-.373-2.605-1.862-4.839-4.096-6.326-4.466-2.978-10.794-1.862-14.143 2.605l-20.472 31.266c-1.116 1.116-2.605 1.861-4.094 1.116-1.116-.372-2.234-1.489-2.234-2.978v-38.709c0-5.583-4.466-10.05-10.049-10.05-5.212 0-10.05 4.466-10.05 10.05v38.71c0 1.489-.744 2.606-2.232 2.978-1.489.745-2.978 0-3.723-1.116l-20.844-31.266c-2.978-4.467-9.306-5.583-13.772-2.605-2.234 1.488-3.723 3.721-4.467 6.326-.372 2.606.373 5.212 1.861 7.445l41.688 62.532c.745.744 1.489 2.232 1.489 3.35v22.705c0 1.117-.372 2.234-1.489 2.606-.743.743-2.232.743-2.977.372l-46.155-22.333c-1.116-.745-2.234-1.861-1.861-3.35v-1.117c.372-2.605-.745-5.21-2.234-7.444-1.861-1.861-4.094-2.978-6.699-3.35-4.839-.372-8.933 2.605-10.422 6.699 0 .745-.744 1.489-1.489 1.862-1.489.744-3.35 2.232-4.467 4.466-1.861 4.094-.745 9.306 2.978 12.284.744.743 1.116 1.861 1.116 2.977l-3.35 47.271c0 1.118-.744 2.234-1.861 2.607-1.117.745-2.234.745-3.35 0l-19.356-11.168c-.745-.744-1.489-1.117-1.489-1.862-.373-.744-.373-1.116-.744-1.489l-33.128-67.371c-2.232-4.839-8.188-7.071-13.027-4.466-2.605 1.116-4.466 2.977-5.21 5.583-.745 2.605-.745 5.21.372 7.815l16.378 33.499c.743 1.489.372 2.978-.373 4.094-1.116.744-2.978 1.117-4.094.373l-27.172-15.634c-2.234-1.489-4.839-1.861-7.444-1.116-2.606.745-4.839 2.234-5.956 4.839-1.489 2.234-1.861 4.839-1.116 7.444.745 2.606 2.234 4.839 4.466 5.956l27.172 15.632c1.489.745 1.862 2.234 1.489 3.723 0 1.489-1.489 2.605-2.977 2.605l-37.222 2.605c-2.605 0-5.21 1.117-6.699 3.351-1.862 1.861-2.606 4.466-2.606 7.071.373 5.583 5.212 9.679 10.795 9.306l75.187-5.21h.745c1.116-.373 1.861 0 2.605.372l19.728 11.538c.745.373 1.488 1.489 1.488 2.606 0 1.116-.372 2.232-1.488 2.977l-39.083 26.427c-1.117.744-2.605.744-3.723 0l-.744-.372c-4.839-2.978-10.794-1.861-14.143 2.605-1.862 2.978-2.234 6.699-.745 9.677.372.745.372 1.861 0 2.978-1.489 2.978-1.117 6.699.745 9.677 3.35 4.467 9.304 5.956 13.772 2.605l1.116-.372c1.117-.744 2.605-.744 3.723 0l39.083 26.427c1.116.745 1.488 1.861 1.488 2.978 0 1.116-.743 2.232-1.488 2.977l-19.731 11.171c-.745.373-1.489.373-2.605.373 0 0-.373 0-.745 0l-75.187-5.212c-5.583-.372-10.422 3.723-10.795 9.306-.372 5.21 3.723 10.049 9.306 10.422l37.222 2.605c1.488.372 2.977 1.116 2.977 2.605.373 1.489 0 2.978-1.489 3.723l-27.172 15.632c-4.466 2.606-6.326 8.934-3.35 13.773 1.117 2.232 3.35 3.721 5.956 4.466 2.605.745 5.21.373 7.444-1.116l27.172-15.634c1.116-.744 2.978-.371 4.094.745.745.745 1.116 2.605.373 3.723l-16.378 33.871c-2.234 4.839-.372 10.795 4.839 13.027 4.839 2.606 10.795.373 13.027-4.466l33.128-67.371c.372-.373.372-.745.372-1.117.373-.745 1.117-1.861 1.862-2.232l19.355-11.166c1.116-.745 2.232-.745 3.35 0 1.116.372 1.861 1.488 1.861 2.605l3.723 50.992c0 1.117-.373 2.234-1.489 2.978-3.723 2.605-4.839 7.817-2.978 12.283 1.489 2.607 3.723 4.467 6.701 5.212.372.373 1.116.744 1.488 1.116 2.234 2.234 5.212 2.978 7.817 2.978 4.839-.372 8.933-4.094 9.306-8.56 0-1.489.745-2.234 1.861-2.978l45.782-22.333c1.117-.373 2.607-.373 3.35.372 1.117.373 1.489 1.489 1.489 2.607v22.705c0 .745 0 1.489-.372 1.861-.373.373-.373.745-.744 1.117l-42.061 62.903c-1.488 2.234-2.232 4.839-1.861 7.444.745 2.607 2.234 4.839 4.467 6.328 2.232 1.489 4.839 1.862 7.444 1.489 2.605-.372 4.839-1.861 6.328-4.094l20.844-31.266c.741-.747 1.486-1.491 2.602-1.491zm13.4 51.365c-9.306 0-16.75-7.444-16.75-16.75v-20.099l-14.516 21.961c-2.605 3.721-6.328 6.328-10.795 7.072-4.466.743-8.56 0-12.283-2.607-3.723-2.605-6.328-6.328-7.072-10.422-1.116-4.466 0-8.933 2.606-12.654l41.687-62.532c.373-.373.373-.373.373-.746v-16.003l-39.454 19.355c-1.489 6.699-7.817 12.283-14.889 12.656-4.839.372-9.304-1.489-12.656-4.467-4.466-1.489-8.188-4.467-10.049-8.561-2.978-6.699-1.489-14.516 3.35-19.355l-2.978-43.922-13.772 7.817c-.372.373-.372.745-.372.745l-33.128 67.743c-4.094 8.188-14.143 11.538-22.333 7.816-8.188-4.466-11.91-14.516-7.815-22.333l11.538-23.821-17.494 10.049c-3.721 2.234-8.188 2.605-12.656 1.489-4.094-1.116-7.815-3.723-10.049-7.817-4.467-7.815-1.861-17.866 5.955-22.705l17.867-10.05-26.427-1.861c-9.306-.372-16.378-8.561-15.634-17.494.745-9.304 8.561-16.377 17.866-15.632l75.187 5.21h.744l13.772-8.188-32.755-22.333c-7.444 4.094-17.121 2.234-22.332-5.21-2.978-4.467-3.351-10.05-1.862-14.889-1.489-4.839-1.116-10.422 1.862-14.889 5.21-7.071 14.888-9.304 22.332-5.21l32.755-22.333-13.772-8.188c-.372 0-.744 0-1.116 0l-74.816 5.21c-9.304.744-17.121-6.326-17.866-15.632-.372-4.467 1.116-8.561 4.094-11.911s7.072-5.583 11.539-5.583l26.427-1.861-17.867-10.05c-3.721-2.234-6.328-5.955-7.444-10.049-1.116-4.467-.745-8.934 1.489-12.656 2.234-4.094 5.955-6.701 10.049-7.817 4.467-1.116 8.934-.744 12.656 1.489l17.494 10.049-11.538-23.449c-1.862-4.094-2.234-8.56-.745-13.027 1.489-4.094 4.466-7.444 8.56-9.306 8.19-4.094 18.239-.744 22.333 7.445l33.128 67.742s0 .373.372.745l13.772 7.817 2.978-40.199c-5.212-5.212-6.328-12.656-3.35-19.355 1.116-2.606 3.35-4.84 5.955-6.701 2.978-6.328 9.677-10.422 16.75-10.049 4.094.372 8.188 2.232 11.167 5.583 2.978 3.35 4.094 7.071 4.094 11.167l39.083 18.982v-16.005c0-.372-.373-.745-.373-1.116l-41.687-62.16c-2.606-3.35-3.351-7.815-2.606-12.283.744-4.467 3.35-8.188 7.072-10.794 7.444-5.212 17.866-2.979 23.077 4.466l14.516 21.961v-27.545c0-9.305 7.444-16.75 16.75-16.75s16.75 7.444 16.75 16.75v27.545l14.516-21.961c5.21-7.444 15.632-9.677 23.449-4.466 3.723 2.605 6.328 6.326 7.072 10.794.745 4.467 0 8.933-2.605 12.283l-42.061 62.532c0 .373 0 .745-.372.745v16.005l32.755-15.632v-2.234c-.373-4.467 1.116-8.933 4.094-12.283 2.978-3.351 7.072-5.212 11.167-5.583 6.328-.373 11.911 2.605 15.261 7.444 5.955.372 11.538 4.094 13.772 9.306 4.094 8.56.745 18.237-7.444 22.332l-1.862 1.117 2.606 36.105 14.143-8.188s0-.373.373-.745l33.126-67.371c3.723-8.19 13.772-11.539 22.333-7.445 8.188 3.723 11.538 13.773 7.444 22.333l-11.538 23.449 23.821-13.772c8.19-4.466 18.239-1.861 22.706 6.328 4.839 7.817 1.861 17.867-5.956 22.705l-24.194 13.773 26.427 1.861c4.467 0 8.561 2.234 11.539 5.583 2.977 3.35 4.466 7.444 4.094 11.911-.373 4.466-2.234 8.561-5.583 11.538-3.35 2.978-7.817 4.467-12.284 4.094l-75.186-5.21c-.373 0-.373 0-.745 0l-13.773 8.188 33.128 22.333c7.444-4.094 17.121-1.861 21.96 5.21 2.605 4.467 3.35 10.05 1.862 14.889 1.488 4.839 1.116 10.422-1.862 14.889-2.605 3.721-6.328 6.326-10.794 7.072-3.723.743-7.817 0-11.166-1.862l-33.128 22.333 13.773 8.188h1.116l74.814-5.21c4.467-.373 8.934 1.116 12.284 4.094s5.21 7.072 5.583 11.538c.745 8.933-6.328 17.123-15.634 17.494l-26.427 1.861 24.194 13.773c7.817 4.839 10.795 14.888 5.956 23.076-2.234 3.723-5.583 6.328-10.05 7.445-4.466 1.116-8.933.745-12.656-1.489l-23.821-13.772 11.538 23.821c4.094 8.19.745 17.867-7.444 22.333-8.561 3.723-18.239.373-22.333-7.816l-33.499-67.743c0-.372 0-.372 0-.745l-14.143-7.817-2.978 39.827 2.234 1.116c8.188 4.094 11.538 14.145 7.444 22.333-2.978 6.328-10.05 10.05-17.121 9.306-3.351 2.605-7.445 4.094-11.539 3.723-4.466-.373-8.56-2.234-11.538-5.956-2.606-2.605-4.094-6.328-4.094-10.422l-32.755-15.632v16.004c.372.373.372.373.372.746l42.061 62.532c2.605 3.721 3.35 8.188 2.605 12.654-1.116 4.094-3.35 7.817-7.072 10.422-3.723 2.607-8.188 3.35-12.656 2.607-4.094-.745-8.188-3.351-10.794-7.072l-14.516-21.961v20.099c.003 9.304-7.441 16.748-16.747 16.748z" fill="#171615" fill-rule="evenodd"/></g></svg>