<?xml version="1.0" encoding="UTF-8"?>
<svg xmlns="http://www.w3.org/2000/svg" id="Layer_1" data-name="Layer 1" viewBox="0 0 256 256" width="512" height="512"><path d="M128,131a3,3,0,0,1-3-3V32.755a3,3,0,1,1,6,0V128A3,3,0,0,1,128,131Z"/><path d="M128,60.429a3,3,0,0,1-2.121-5.121l17.573-17.575a3,3,0,0,1,4.242,4.243L130.121,59.55A2.989,2.989,0,0,1,128,60.429Z"/><path d="M128,60.429a2.989,2.989,0,0,1-2.121-.879L108.306,41.976a3,3,0,1,1,4.242-4.243l17.573,17.575A3,3,0,0,1,128,60.429Z"/><path d="M128,83a3,3,0,0,1-2.121-5.121l17.573-17.573a3,3,0,0,1,4.242,4.242L130.121,82.121A2.989,2.989,0,0,1,128,83Z"/><path d="M128,83a2.989,2.989,0,0,1-2.121-.879L108.306,64.548a3,3,0,1,1,4.242-4.242l17.573,17.573A3,3,0,0,1,128,83Z"/><path d="M128,131a3,3,0,0,1-2.6-1.5L93.779,74.729a3,3,0,0,1,5.2-3L130.6,126.5A3,3,0,0,1,128,131Z"/><path d="M96.377,76.229a3,3,0,0,1-1.7-.529L71.692,59.881a3,3,0,0,1-1.2-3.248l4.391-16.386a2.994,2.994,0,0,1,3.674-2.121l16.385,4.391a3,3,0,0,1,2.214,2.66l2.207,27.814a3,3,0,0,1-2.99,3.238ZM76.84,56.14,92.888,67.186,91.347,47.764,79.905,44.7Z"/><path d="M128,35.755a3,3,0,0,1-2.7-1.686l-9.752-20a3,3,0,0,1,.575-3.435L125.879.879a3,3,0,0,1,4.242,0l9.752,9.752a3,3,0,0,1,.575,3.435l-9.752,20A3,3,0,0,1,128,35.755Zm-6.118-22.4L128,25.909l6.118-12.549L128,7.242Z"/><path d="M128,131a2.985,2.985,0,0,1-1.5-.4L44.016,82.975a3,3,0,0,1,3-5.2L129.5,125.4A3,3,0,0,1,128,131Z"/><path d="M66.881,95.715a3,3,0,0,1-2.9-2.225L57.554,69.484a3,3,0,0,1,5.795-1.552L69.78,91.938a3,3,0,0,1-2.121,3.673A2.948,2.948,0,0,1,66.881,95.715Z"/><path d="M42.875,102.147a3,3,0,0,1-.774-5.9l24-6.433a3,3,0,0,1,1.553,5.8l-24.006,6.433A2.982,2.982,0,0,1,42.875,102.147Z"/><path d="M86.429,107a3,3,0,0,1-2.9-2.225l-6.432-24a3,3,0,1,1,5.8-1.553l6.432,24.006a3,3,0,0,1-2.121,3.673A2.948,2.948,0,0,1,86.429,107Z"/><path d="M62.423,113.434a3,3,0,0,1-.775-5.9L85.654,101.1a3,3,0,1,1,1.553,5.794L63.2,113.33A2.989,2.989,0,0,1,62.423,113.434Z"/><path d="M128,131H64.755a3,3,0,0,1,0-6H128a3,3,0,0,1,0,6Z"/><path d="M39.564,143a3,3,0,0,1-2.122-.879l-12-12a3,3,0,0,1,0-4.242l12-12a3,3,0,0,1,3.412-.588l25.191,12a3,3,0,0,1,0,5.418l-25.191,12A3.018,3.018,0,0,1,39.564,143ZM31.81,128l8.377,8.377L57.777,128l-17.59-8.377Z"/><path d="M45.517,83.377c-.071,0-.141,0-.211-.008l-22.2-1.556A3,3,0,0,1,20.419,79.6L16.85,66.276A3,3,0,0,1,18.971,62.6l13.321-3.57a3,3,0,0,1,3.263,1.22L48,78.7a3,3,0,0,1-2.485,4.678Zm-19.857-7.4,13.927.975L31.778,65.382l-8.357,2.239Z"/><path d="M45.519,178.624a3,3,0,0,1-1.5-5.6L126.5,125.4a3,3,0,1,1,3,5.2L47.016,178.221A2.988,2.988,0,0,1,45.519,178.624Z"/><path d="M66.885,166.287a3,3,0,0,1-.779-.1l-24-6.433a3,3,0,1,1,1.552-5.8l24.006,6.433a3,3,0,0,1-.774,5.9Z"/><path d="M60.453,190.293a2.948,2.948,0,0,1-.778-.1,3,3,0,0,1-2.121-3.673l6.431-24.006a3,3,0,1,1,5.8,1.553l-6.431,24.005A3,3,0,0,1,60.453,190.293Z"/><path d="M86.433,155a2.955,2.955,0,0,1-.779-.1l-24.006-6.432a3,3,0,1,1,1.553-5.8L87.207,149.1a3,3,0,0,1-.774,5.9Z"/><path d="M80,179.007a2.942,2.942,0,0,1-.778-.1,3,3,0,0,1-2.121-3.674l6.432-24.005a3,3,0,0,1,5.8,1.552L82.9,176.782A3,3,0,0,1,80,179.007Z"/><path d="M96.374,185.772a3,3,0,0,1-2.595-4.5L125.4,126.5a3,3,0,1,1,5.2,3L98.975,184.271A3,3,0,0,1,96.374,185.772Z"/><path d="M77.782,217.978a3,3,0,0,1-2.895-2.225L70.5,199.367a3,3,0,0,1,1.2-3.248L94.676,180.3a3,3,0,0,1,4.691,2.709L97.16,210.823a3,3,0,0,1-2.214,2.66l-16.385,4.391A3,3,0,0,1,77.782,217.978ZM76.84,199.86,79.905,211.3l11.442-3.067,1.541-19.422Z"/><path d="M33.068,197.069a3,3,0,0,1-.776-.1L18.971,193.4a3,3,0,0,1-2.121-3.673L20.419,176.4a3,3,0,0,1,2.687-2.215l22.2-1.556A3,3,0,0,1,48,177.3L35.555,195.747A3,3,0,0,1,33.068,197.069Zm-9.647-8.69,8.357,2.239,7.809-11.572-13.927.975Z"/><path d="M128,226.245a3,3,0,0,1-3-3V128a3,3,0,0,1,6,0v95.245A3,3,0,0,1,128,226.245Z"/><path d="M110.427,219.146a3,3,0,0,1-2.121-5.122l17.573-17.574a3,3,0,0,1,4.242,4.242l-17.573,17.575A2.991,2.991,0,0,1,110.427,219.146Z"/><path d="M145.573,219.146a2.991,2.991,0,0,1-2.121-.879l-17.573-17.575a3,3,0,1,1,4.242-4.242l17.573,17.574a3,3,0,0,1-2.121,5.122Z"/><path d="M110.427,196.573a3,3,0,0,1-2.121-5.121l17.573-17.573a3,3,0,0,1,4.242,4.242l-17.573,17.573A2.991,2.991,0,0,1,110.427,196.573Z"/><path d="M145.573,196.573a2.991,2.991,0,0,1-2.121-.879l-17.573-17.573a3,3,0,1,1,4.242-4.242l17.573,17.573a3,3,0,0,1-2.121,5.121Z"/><path d="M159.626,185.772a3,3,0,0,1-2.6-1.5L125.4,129.5a3,3,0,0,1,5.2-3l31.623,54.771a3,3,0,0,1-2.595,4.5Z"/><path d="M178.218,217.978a3,3,0,0,1-.779-.1l-16.385-4.391a3,3,0,0,1-2.214-2.66l-2.207-27.814a3,3,0,0,1,4.691-2.709l22.984,15.819a3,3,0,0,1,1.2,3.248l-4.391,16.386A3,3,0,0,1,178.218,217.978Zm-13.565-9.742L176.1,211.3l3.065-11.443-16.048-11.046Z"/><path d="M128,256a2.989,2.989,0,0,1-2.121-.879l-9.752-9.752a3,3,0,0,1-.575-3.435l9.752-20a3,3,0,0,1,5.392,0l9.752,20a3,3,0,0,1-.575,3.435l-9.752,9.752A2.989,2.989,0,0,1,128,256Zm-6.118-13.36L128,248.758l6.118-6.118L128,230.091Z"/><path d="M210.481,178.624a2.988,2.988,0,0,1-1.5-.4L126.5,130.6a3,3,0,0,1,3-5.2l82.484,47.623a3,3,0,0,1-1.5,5.6Z"/><path d="M195.547,190.293a3,3,0,0,1-2.9-2.225l-6.431-24.005a3,3,0,0,1,5.795-1.553l6.431,24.006a3,3,0,0,1-2.121,3.673A2.948,2.948,0,0,1,195.547,190.293Z"/><path d="M189.115,166.287a3,3,0,0,1-.774-5.9l24.006-6.433a3,3,0,1,1,1.552,5.8l-24,6.433A3,3,0,0,1,189.115,166.287Z"/><path d="M176,179.007a3,3,0,0,1-2.9-2.225l-6.432-24.006a3,3,0,0,1,5.8-1.552l6.432,24.005a3,3,0,0,1-2.121,3.674A2.942,2.942,0,0,1,176,179.007Z"/><path d="M169.567,155a3,3,0,0,1-.774-5.9L192.8,142.67a3,3,0,0,1,1.553,5.8L170.346,154.9A2.955,2.955,0,0,1,169.567,155Z"/><path d="M191.245,131H128a3,3,0,0,1,0-6h63.245a3,3,0,0,1,0,6Z"/><path d="M216.436,143a3.018,3.018,0,0,1-1.29-.291l-25.191-12a3,3,0,0,1,0-5.418l25.191-12a3,3,0,0,1,3.412.588l12,12a3,3,0,0,1,0,4.242l-12,12A3,3,0,0,1,216.436,143Zm-18.213-15,17.59,8.377L224.19,128l-8.377-8.377Z"/><path d="M222.932,197.069a3,3,0,0,1-2.487-1.322L208,177.3a3,3,0,0,1,2.7-4.67l22.2,1.556a3,3,0,0,1,2.687,2.215l3.569,13.322a3,3,0,0,1-2.121,3.673l-13.321,3.57A3,3,0,0,1,222.932,197.069Zm-6.519-18.023,7.809,11.572,8.357-2.239-2.239-8.358Z"/><path d="M128,131a3,3,0,0,1-1.5-5.6l82.484-47.623a3,3,0,1,1,3,5.2L129.5,130.6A2.985,2.985,0,0,1,128,131Z"/><path d="M213.125,102.147a2.982,2.982,0,0,1-.778-.1l-24.006-6.433a3,3,0,0,1,1.553-5.8l24,6.433a3,3,0,0,1-.774,5.9Z"/><path d="M189.119,95.715a2.948,2.948,0,0,1-.778-.1,3,3,0,0,1-2.121-3.673l6.431-24.006a3,3,0,0,1,5.795,1.552L192.015,93.49A3,3,0,0,1,189.119,95.715Z"/><path d="M193.577,113.434a2.989,2.989,0,0,1-.778-.1L168.793,106.9a3,3,0,1,1,1.553-5.794l24.006,6.432a3,3,0,0,1-.775,5.9Z"/><path d="M169.571,107a2.948,2.948,0,0,1-.778-.1,3,3,0,0,1-2.121-3.673L173.1,79.218a3,3,0,1,1,5.795,1.553l-6.432,24A3,3,0,0,1,169.571,107Z"/><path d="M128,131a3,3,0,0,1-2.595-4.5l31.623-54.771a3,3,0,0,1,5.2,3L130.6,129.5A3,3,0,0,1,128,131Z"/><path d="M159.623,76.229a3,3,0,0,1-2.99-3.238l2.207-27.814a3,3,0,0,1,2.214-2.66l16.385-4.391a2.994,2.994,0,0,1,3.674,2.121L185.5,56.633a3,3,0,0,1-1.2,3.248L161.324,75.7A3,3,0,0,1,159.623,76.229Zm5.03-28.465-1.541,19.422L179.16,56.14,176.1,44.7Z"/><path d="M210.483,83.377A3,3,0,0,1,208,78.7l12.447-18.446a3,3,0,0,1,3.263-1.22l13.321,3.57a3,3,0,0,1,2.121,3.673L235.581,79.6a3,3,0,0,1-2.687,2.215l-22.2,1.556C210.624,83.375,210.554,83.377,210.483,83.377Zm22.2-4.556h0Zm-8.462-13.439-7.809,11.572,13.927-.975,2.239-8.358Z"/></svg>
