<svg xmlns="http://www.w3.org/2000/svg" viewBox="0 0 900 220" role="img" aria-labelledby="title desc">
  <title id="title">CircleLab logo</title>
  <desc id="desc">A circle-based mark made from overlapping perfect circles beside the word CircleLab.</desc>
  <defs>
    <style>
      .mark {
        fill: none;
        stroke: #ffffff;
        stroke-width: 3.5;
        stroke-linecap: round;
        stroke-linejoin: round;
      }

      .wordmark-path {
        fill: #ffffff;
        stroke: #ffffff;
        stroke-width: 2.2;
        stroke-linecap: round;
        stroke-linejoin: round;
        paint-order: stroke fill;
      }
    </style>
  </defs>

  <g transform="translate(26 20)">
    <g transform="translate(86 90) scale(0.62)">
      <circle class="mark" cx="0" cy="-34" r="84" />
      <circle class="mark" cx="29" cy="-17" r="84" />
      <circle class="mark" cx="29" cy="17" r="84" />
      <circle class="mark" cx="0" cy="34" r="84" />
      <circle class="mark" cx="-29" cy="17" r="84" />
      <circle class="mark" cx="-29" cy="-17" r="84" />
    </g>

    <g aria-hidden="true" transform="translate(0 6)">
      <g transform="translate(178 90) scale(0.92) translate(-178 -90)">
      <path class="wordmark-path" d="M219.922 53.875Q211.048 53.875 204.673 57.8275Q198.298 61.78 194.93200000000002 69.277Q191.566 76.774 191.566 87.229Q191.566 96.919 195.4675 104.4925Q199.369 112.066 206.356 116.3245Q213.343 120.583 222.21699999999998 120.583Q227.674 120.583 231.856 118.543Q236.038 116.503 239.4805 112.11699999999999Q242.923 107.731 246.034 100.54H248.992L245.728 119.002Q241.59699999999998 121.603 234.6865 123.3115Q227.776 125.02 221.35 125.02Q210.18099999999998 125.02 201.409 120.37899999999999Q192.637 115.738 187.74099999999999 107.425Q182.845 99.112 182.845 88.453Q182.845 77.182 187.74099999999999 68.3335Q192.637 59.485 201.358 54.5125Q210.079 49.540000000000006 221.146 49.540000000000006Q228.643 49.540000000000006 235.273 51.121Q241.903 52.702 246.952 55.66000000000001V71.98H244.19799999999998Q242.821 65.605 239.83749999999998 61.627Q236.85399999999998 57.649 231.958 55.762Q227.062 53.875 219.922 53.875Z" />
      <path class="wordmark-path" d="M265.567 49.03Q267.199 49.03 268.627 49.846000000000004Q270.055 50.662000000000006 270.871 52.09Q271.687 53.518 271.687 55.150000000000006Q271.687 56.78200000000001 270.871 58.21000000000001Q270.055 59.638000000000005 268.627 60.45400000000001Q267.199 61.27 265.567 61.27Q263.935 61.27 262.507 60.45400000000001Q261.079 59.638000000000005 260.26300000000003 58.21000000000001Q259.447 56.78200000000001 259.447 55.150000000000006Q259.447 53.518 260.26300000000003 52.09Q261.079 50.662000000000006 262.507 49.846000000000004Q263.935 49.03 265.567 49.03ZM267.505 80.242 254.755 75.142V73.0L267.505 67.9H269.647ZM277.399 121.042V124.0H254.755V121.042Q257.764 120.634 259.42150000000004 119.9965Q261.079 119.359 261.793 118.3135Q262.507 117.268 262.507 115.534V75.09100000000001L269.647 67.9V115.534Q269.647 117.268 270.361 118.3135Q271.075 119.359 272.73249999999996 119.9965Q274.39 120.634 277.399 121.042Z" />
      <path class="wordmark-path" d="M293.209 80.242 280.459 75.142V73.0L293.209 67.9H295.351ZM304.123 121.042V124.0H280.459V121.042Q283.468 120.634 285.1255 119.9965Q286.783 119.359 287.497 118.3135Q288.211 117.268 288.211 115.534V75.09100000000001L295.351 67.9V115.228Q295.351 117.115 296.1415 118.2115Q296.932 119.308 298.819 119.94550000000001Q300.706 120.583 304.123 121.042ZM309.937 67.9Q311.26300000000003 67.9 312.385 68.308Q313.507 68.71600000000001 314.119 69.43V76.57H311.467Q307.336 76.57 304.48 77.59Q301.624 78.61 299.09950000000003 81.10900000000001Q296.575 83.608 293.56600000000003 88.30000000000001V83.71000000000001Q297.34000000000003 77.896 300.17050000000006 74.45349999999999Q303.00100000000003 71.011 305.347 69.4555Q307.693 67.9 309.937 67.9Z" />
      <path class="wordmark-path" d="M342.21999999999997 125.02Q335.18199999999996 125.02 329.44449999999995 121.44999999999999Q323.707 117.88 320.443 111.6325Q317.179 105.385 317.179 97.684Q317.179 89.473 320.5705 82.63900000000001Q323.962 75.805 329.8015 71.8525Q335.64099999999996 67.9 342.679 67.9Q347.779 67.9 351.7825 69.5065Q355.786 71.113 358.03 73.9435Q360.274 76.774 360.274 80.39500000000001Q360.274 81.92500000000001 359.45799999999997 83.45500000000001Q358.642 84.985 357.469 85.75H352.41999999999996V83.251Q352.41999999999996 77.743 349.69149999999996 74.9125Q346.96299999999997 72.082 341.659 72.082Q336.508 72.082 332.683 74.8615Q328.858 77.641 326.818 82.843Q324.77799999999996 88.045 324.77799999999996 95.03200000000001Q324.77799999999996 101.76400000000001 327.17499999999995 107.0425Q329.572 112.321 333.88149999999996 115.2535Q338.191 118.186 343.69899999999996 118.186Q348.34 118.186 351.859 116.52850000000001Q355.378 114.871 358.897 111.09700000000001L361.294 113.443Q358.03 119.104 353.1595 122.062Q348.289 125.02 342.21999999999997 125.02Z" />
      <path class="wordmark-path" d="M376.849 60.862 364.099 54.742000000000004V52.60000000000001L376.849 46.480000000000004H378.991ZM386.743 121.042V124.0H364.099V121.042Q367.108 120.634 368.7655 119.9965Q370.423 119.359 371.137 118.3135Q371.851 117.268 371.851 115.534V53.67100000000001L378.991 46.480000000000004V115.534Q378.991 117.268 379.705 118.3135Q380.419 119.359 382.0765 119.9965Q383.734 120.634 386.743 121.042Z" />
      <path class="wordmark-path" d="M415.864 125.02Q408.26499999999993 125.02 402.32349999999997 121.60300000000001Q396.38199999999995 118.186 393.0925 112.04050000000001Q389.80299999999994 105.895 389.80299999999994 98.041Q389.80299999999994 89.779 393.27099999999996 82.8685Q396.739 75.958 402.655 71.929Q408.57099999999997 67.9 415.65999999999997 67.9Q421.525 67.9 426.11499999999995 70.83250000000001Q430.7049999999999 73.765 433.28049999999996 78.9925Q435.85599999999994 84.22 435.85599999999994 90.85V93.50200000000001H396.53499999999997V89.932L429.42999999999995 89.167L427.84899999999993 90.493Q427.84899999999993 84.934 426.24249999999995 80.7775Q424.63599999999997 76.62100000000001 421.6524999999999 74.3515Q418.6689999999999 72.082 414.74199999999996 72.082Q409.59099999999995 72.082 405.6384999999999 74.9635Q401.6859999999999 77.845 399.5439999999999 83.0725Q397.40199999999993 88.30000000000001 397.40199999999993 95.185Q397.40199999999993 102.47800000000001 399.7734999999999 107.78200000000001Q402.1449999999999 113.086 406.6329999999999 115.89099999999999Q411.1209999999999 118.696 417.34299999999996 118.696Q421.9839999999999 118.696 426.0129999999999 116.83449999999999Q430.042 114.973 433.96899999999994 111.046L436.36599999999993 113.443Q432.43899999999996 119.308 427.33899999999994 122.164Q422.2389999999999 125.02 415.864 125.02Z" />
      <path class="wordmark-path" d="M450.13599999999997 112.372V62.188Q450.13599999999997 59.077 449.21799999999996 57.343Q448.29999999999995 55.60900000000001 446.13249999999994 54.767500000000005Q443.965 53.926 439.936 53.72200000000001V50.56H467.986V53.72200000000001Q464.008 53.926 461.8405 54.767500000000005Q459.673 55.60900000000001 458.72950000000003 57.343Q457.786 59.077 457.786 62.188V111.352Q457.786 114.412 458.8825 116.197Q459.979 117.982 462.40149999999994 118.798Q464.82399999999996 119.614 468.955 119.614H472.933Q477.82899999999995 119.614 481.47549999999995 117.93100000000001Q485.12199999999996 116.248 488.05449999999996 112.525Q490.98699999999997 108.802 493.741 102.529H496.64799999999997L492.87399999999997 124.0H439.936V120.838Q443.914 120.634 446.10699999999997 119.79249999999999Q448.29999999999995 118.951 449.21799999999996 117.19149999999999Q450.13599999999997 115.432 450.13599999999997 112.372Z" />
      <path class="wordmark-path" d="M540.508 125.02Q536.275 125.02 533.98 122.49549999999999Q531.685 119.971 531.685 115.33V84.271Q531.685 77.998 528.5995 74.68299999999999Q525.514 71.368 519.649 71.368Q514.498 71.368 511.693 74.479Q508.888 77.59 508.888 83.251V85.75H503.584Q502.411 84.934 501.748 83.455Q501.085 81.976 501.085 80.39500000000001Q501.085 76.97800000000001 503.6095 74.0965Q506.134 71.215 510.44350000000003 69.5575Q514.753 67.9 519.751 67.9Q525.769 67.9 530.053 69.9655Q534.337 72.031 536.581 76.009Q538.825 79.987 538.825 85.648V115.84Q538.825 117.625 539.4625000000001 118.5685Q540.1 119.512 541.7065 120.0475Q543.313 120.583 546.577 121.042V124.0Q545.251 124.459 543.568 124.73949999999999Q541.885 125.02 540.508 125.02ZM514.039 125.02Q509.653 125.02 506.28700000000003 123.26050000000001Q502.921 121.501 501.05949999999996 118.36449999999999Q499.198 115.228 499.198 111.25Q499.198 105.385 502.615 101.611Q506.032 97.837 513.478 95.695L534.133 89.779V93.50200000000001L514.753 99.469Q510.775 100.693 508.7605 103.42150000000001Q506.746 106.15 506.746 110.23Q506.746 112.78 508.0465 114.8965Q509.347 117.013 511.6165 118.2115Q513.886 119.41 516.742 119.41Q521.332 119.41 526.024 116.7835Q530.716 114.157 533.98 109.72L534.082 114.208Q530.104 119.359 524.8765000000001 122.1895Q519.649 125.02 514.039 125.02Z" />
      <path class="wordmark-path" d="M561.4689999999999 46.480000000000004V119.716H560.7549999999999L556.4709999999999 124.0H554.329V52.498000000000005ZM559.3269999999999 60.862 546.5769999999999 54.742000000000004V52.60000000000001L559.3269999999999 46.480000000000004H561.4689999999999ZM574.372 120.94Q580.2879999999999 120.94 584.6484999999999 117.931Q589.0089999999999 114.922 591.3549999999999 109.3885Q593.7009999999999 103.855 593.7009999999999 96.46000000000001Q593.7009999999999 89.575 591.5844999999999 84.52600000000001Q589.468 79.477 585.5155 76.7485Q581.5629999999999 74.02000000000001 576.1059999999999 74.02000000000001Q572.7909999999999 74.02000000000001 569.1954999999999 75.346Q565.5999999999999 76.672 562.387 79.1455Q559.174 81.619 557.1339999999999 84.934V81.517Q559.6329999999999 77.08000000000001 563.0754999999999 74.02000000000001Q566.5179999999999 70.96000000000001 570.5215 69.43Q574.525 67.9 578.656 67.9Q585.0819999999999 67.9 590.233 71.18950000000001Q595.3839999999999 74.47900000000001 598.2655 80.26750000000001Q601.1469999999999 86.05600000000001 601.1469999999999 93.196Q601.1469999999999 102.325 597.7555 109.5925Q594.3639999999999 116.86 588.2439999999999 120.94Q582.1239999999999 125.02 574.3209999999999 125.02Q569.3229999999999 125.02 564.4269999999999 123.031Q559.531 121.042 557.0319999999999 117.982V110.383Q561.2139999999999 116.197 565.192 118.5685Q569.17 120.94 574.372 120.94Z" />
      </g>
    </g>
  </g>
</svg>
