<svg id="Layer_1" viewBox="0 0 24 24" xmlns="http://www.w3.org/2000/svg" data-name="Layer 1" fill="#9FB0BB"><path d="m10.708 10.955.63 2.045h-1.274zm11.94 7.654s0 0 0 0c-.577.929-1.763 1.375-3.333 1.375-.434 0-.907-.047-1.396-.114.097-.306.188-.619.272-.943 1.819.233 3.124-.067 3.607-.845.888-1.431-.884-4.624-4.85-7.747.032.546.061 1.095.061 1.666 0 6.729-2.196 12-5 12-1.221 0-2.327-1.002-3.187-2.687.319-.092.645-.203.971-.313.675 1.273 1.462 2 2.216 2 1.498 0 3.128-2.84 3.743-7.239-.321.224-.651.445-.997.661-2.779 1.727-5.664 2.928-8.122 3.383-.704.13-1.354.194-1.943.194-1.597 0-2.748-.473-3.318-1.388 0 0-.001 0-.002-.002-.768-1.237-.29-3.063 1.123-5.043.225.237.459.473.704.708-1.122 1.612-1.482 2.995-.978 3.807.54.867 2.079 1.138 4.231.74 1.368-.253 2.882-.759 4.438-1.464-.54-.291-1.082-.598-1.627-.936-5.96-3.705-9.427-8.548-7.891-11.028 0 0 0-.002.001-.003.735-1.185 2.467-1.576 4.719-1.266-.096.307-.185.622-.269.948-1.815-.232-3.117.068-3.6.845-.889 1.432.886 4.63 4.859 7.756-.031-.552-.08-1.098-.08-1.674 0-6.728 2.206-11.999 5.009-12 1.22 0 2.325 1 3.184 2.682-.32.093-.644.196-.973.309-.674-1.267-1.459-1.99-2.211-1.99-1.499 0-3.13 2.843-3.744 7.246.33-.223.649-.451.997-.667 5.963-3.705 11.844-4.667 13.386-2.188s0 0 0 0c.769 1.237.289 3.064-1.124 5.044-.225-.237-.458-.473-.703-.709 1.122-1.613 1.482-2.995.978-3.807-.862-1.387-4.321-1.269-8.689.723.546.29 1.094.593 1.647.937 5.966 3.706 9.432 8.551 7.892 11.03zm-9.648-3.609-1.847-6h-.878l-1.888 6h1.049l.315-1h1.896l.308 1h1.046zm2-6h-1v6h1z"/></svg>
