<?xml version="1.0" encoding="UTF-8"?>
<svg xmlns="http://www.w3.org/2000/svg" id="Layer_1" data-name="Layer 1" viewBox="0 0 24 24" fill="#9FB0BB">
  <path d="M10.868,18.956l.34,.964c-.397,.048-.799,.08-1.208,.08C4.486,20,0,15.514,0,10S4.486,0,10,0s10,4.486,10,10c0,.407-.032,.807-.079,1.201l-.964-.343c.027-.283,.044-.569,.044-.859C19,5.037,14.963,1,10,1S1,5.037,1,10s4.037,9,9,9c.293,0,.582-.017,.868-.044Zm-.868-13.956c2.562,0,4.657,1.945,4.943,4.432l1.047,.372c-.104-3.218-2.747-5.805-5.99-5.805-3.309,0-6,2.691-6,6,0,3.248,2.595,5.895,5.82,5.991l-.37-1.046c-2.496-.278-4.45-2.376-4.45-4.944,0-2.757,2.243-5,5-5Zm9.743,14.036l4.111,4.111-.707,.707-4.111-4.111-4.262,4.263-3.653-10.339c-.266-.736-.087-1.54,.467-2.094,.547-.546,1.373-.729,2.098-.466l10.319,3.667-4.261,4.261Zm-4.555,3.142l6.99-6.991-8.83-3.139c-.117-.042-.234-.062-.352-.062-.263,0-.512,.104-.702,.295-.276,.277-.365,.679-.231,1.05l3.125,8.848Z"/>
</svg>

